<svg width="40" height="40" viewBox="0 0 40 40" fill="none" xmlns="http://www.w3.org/2000/svg">
<g clip-path="url(#clip0_178_317)">
<path d="M34.2173 16.7855C34.2654 11.146 29.4622 5.97605 23.5102 5.26114C23.3919 5.24711 23.2629 5.22574 23.1264 5.20313C22.8317 5.15431 22.527 5.10413 22.2196 5.10413C20.9997 5.10413 20.6736 5.96102 20.5878 6.47208C20.5043 6.96897 20.5839 7.38624 20.824 7.71282C21.228 8.26214 21.9388 8.35965 22.5097 8.43779C22.6771 8.4609 22.835 8.48239 22.9671 8.51208C28.3147 9.70698 30.1153 11.5856 30.9953 16.8877C31.0168 17.0173 31.0265 17.1769 31.0368 17.3462C31.0752 17.98 31.1552 19.2987 32.5728 19.2987H32.573C32.691 19.2987 32.8178 19.2885 32.9499 19.2684C34.27 19.0677 34.2286 17.8624 34.2087 17.2833C34.2032 17.1202 34.1978 16.9659 34.2116 16.8633C34.2153 16.8374 34.2172 16.8115 34.2173 16.7855Z" fill="#FCFCFC"/>
<path d="M21.8733 3.19106C22.0316 3.20248 22.1816 3.21342 22.3064 3.23255C31.0877 4.58298 35.126 8.74348 36.2452 17.5934C36.2642 17.7438 36.2672 17.9273 36.2703 18.1216C36.2815 18.813 36.3044 20.2514 37.8492 20.2812L37.8971 20.2817C38.3816 20.2817 38.7669 20.1357 39.0426 19.8472C39.5234 19.3442 39.4899 18.597 39.4628 17.9965C39.4562 17.8492 39.4499 17.7104 39.4515 17.5889C39.5632 8.53776 31.7284 0.330186 22.6853 0.0249689C22.6478 0.0237267 22.612 0.0257143 22.5759 0.0308075C22.5403 0.0352842 22.5046 0.0372353 22.4688 0.036646C22.3786 0.036646 22.2677 0.0288199 22.15 0.0208696C22.0078 0.0111801 21.8465 0 21.6831 0C20.2429 0 19.9692 1.0236 19.9341 1.63379C19.8534 3.04397 21.2176 3.14323 21.8733 3.19106ZM35.8214 29.0314C35.6328 28.8885 35.4459 28.7433 35.261 28.5956C34.3022 27.8241 33.2822 27.1129 32.2957 26.4251C32.091 26.2826 31.8866 26.1398 31.6823 25.9966C30.4187 25.1091 29.2827 24.6778 28.2094 24.6778C26.7638 24.6778 25.5034 25.4765 24.4632 27.0515C24.0023 27.7498 23.4432 28.0893 22.7541 28.0893C22.3467 28.0893 21.8837 27.973 21.3782 27.7436C17.2996 25.894 14.3872 23.0583 12.7217 19.315C11.9166 17.5058 12.1776 16.3232 13.5945 15.3607C14.3991 14.8147 15.8967 13.798 15.7906 11.8512C15.6705 9.64037 10.7925 2.98832 8.73723 2.2328C7.86704 1.91279 6.95275 1.90981 6.01487 2.22534C3.65213 3.01963 1.9566 4.41453 1.11114 6.25901C0.29412 8.04124 0.331014 10.1339 1.21785 12.3108C3.78157 18.6047 7.38605 24.0922 11.9315 28.6205C16.3807 33.0533 21.8492 36.6843 28.1848 39.4124C28.7559 39.6581 29.3549 39.7922 29.7923 39.8899C29.9413 39.9235 30.07 39.952 30.1638 39.9778C30.2154 39.9918 30.2685 39.9994 30.3218 39.9999L30.3719 40.0001H30.3721C33.352 40.0001 36.93 37.2771 38.0289 34.1728C38.9916 31.4545 37.2339 30.1109 35.8214 29.0314ZM23.1913 10.3806C22.6811 10.3935 21.6193 10.4199 21.2468 11.5012C21.0725 12.0066 21.0934 12.4453 21.3089 12.8053C21.6252 13.3335 22.2311 13.4954 22.7823 13.5842C24.7812 13.905 25.8078 15.0103 26.0131 17.0625C26.1085 18.0194 26.7529 18.6876 27.5802 18.6876C27.6413 18.6876 27.7039 18.684 27.7662 18.6764C28.7612 18.558 29.2436 17.827 29.2 16.5037C29.2159 15.1227 28.4931 13.5549 27.2639 12.3061C26.0305 11.0534 24.5437 10.3479 23.1913 10.3806Z" fill="#FCFCFC"/>
</g>
<defs>
<clipPath id="clip0_178_317">
<rect width="40" height="40" fill="white"/>
</clipPath>
</defs>
</svg>
