<svg width="24" height="24" viewBox="0 0 24 24" fill="none" xmlns="http://www.w3.org/2000/svg">
<g clip-path="url(#clip0_178_345)">
<path d="M20.4597 23.7386H0.700703C0.573399 23.7386 0.451309 23.688 0.361292 23.598C0.271274 23.508 0.220703 23.3859 0.220703 23.2586V3.49941C0.220703 3.37211 0.271274 3.25002 0.361292 3.16C0.451309 3.06998 0.573399 3.01941 0.700703 3.01941H13.8001C13.9274 3.01941 14.0495 3.06998 14.1396 3.16C14.2296 3.25002 14.2801 3.37211 14.2801 3.49941C14.2801 3.62671 14.2296 3.7488 14.1396 3.83882C14.0495 3.92884 13.9274 3.97941 13.8001 3.97941H1.1807V22.7786H19.9797V10.1642C19.9797 10.0369 20.0302 9.91481 20.1203 9.8248C20.2103 9.73478 20.3324 9.68421 20.4597 9.68421C20.587 9.68421 20.7091 9.73478 20.7991 9.8248C20.8891 9.91481 20.9397 10.0369 20.9397 10.1642V23.2586C20.9397 23.3859 20.8891 23.508 20.7991 23.598C20.7091 23.688 20.587 23.7386 20.4597 23.7386Z" fill="#0E5103"/>
<path d="M6.85984 17.6604C6.4492 17.6748 6.21448 17.1261 6.52048 16.841L22.9595 0.40197C23.0038 0.356126 23.0568 0.319558 23.1153 0.294402C23.1739 0.269245 23.2369 0.256004 23.3006 0.25545C23.3643 0.254896 23.4275 0.267041 23.4865 0.291176C23.5455 0.315311 23.5991 0.350952 23.6442 0.396021C23.6893 0.441089 23.7249 0.494682 23.749 0.553672C23.7732 0.612663 23.7853 0.675869 23.7848 0.739603C23.7842 0.803337 23.771 0.866323 23.7458 0.924885C23.7206 0.983446 23.6841 1.03641 23.6382 1.08069L7.19944 17.5197C7.15489 17.5644 7.10196 17.5998 7.04368 17.624C6.9854 17.6481 6.92292 17.6605 6.85984 17.6604Z" fill="#0E5103"/>
<path d="M23.2989 8.77463C23.1716 8.77463 23.0495 8.72406 22.9595 8.63404C22.8695 8.54403 22.8189 8.42194 22.8189 8.29463V1.22135H15.7456C15.6183 1.22135 15.4962 1.17078 15.4062 1.08076C15.3162 0.990746 15.2656 0.868656 15.2656 0.741353C15.2656 0.614049 15.3162 0.491959 15.4062 0.401941C15.4962 0.311924 15.6183 0.261353 15.7456 0.261353H23.2989C23.4262 0.261353 23.5483 0.311924 23.6383 0.401941C23.7283 0.491959 23.7789 0.614049 23.7789 0.741353V8.29463C23.7789 8.42194 23.7283 8.54403 23.6383 8.63404C23.5483 8.72406 23.4262 8.77463 23.2989 8.77463Z" fill="#0E5103"/>
</g>
<defs>
<clipPath id="clip0_178_345">
<rect width="24" height="24" fill="white"/>
</clipPath>
</defs>
</svg>
