<svg width="30" height="30" viewBox="0 0 30 30" fill="none" xmlns="http://www.w3.org/2000/svg">
<g clip-path="url(#clip0_124_1401)">
<path d="M21.244 10.111L20.923 9.0545C20.5153 7.85438 19.2118 7.21207 18.0117 7.61982C17.6786 7.73299 17.376 7.92124 17.1272 8.17C16.8784 8.41877 16.6902 8.7214 16.577 9.0545L16.256 10.111C15.9859 11.002 15.9292 11.944 16.0905 12.861C16.1631 13.2421 16.3206 13.602 16.5511 13.914C16.7817 14.226 17.0795 14.4822 17.4225 14.6635L17.063 22.7C17.0392 22.9218 17.0625 23.1461 17.1315 23.3582C17.2004 23.5704 17.3134 23.7656 17.463 23.931C18.1138 24.6429 19.2186 24.6924 19.9304 24.0416C19.9689 24.0064 20.0058 23.9695 20.041 23.931C20.1873 23.7702 20.2985 23.5807 20.3674 23.3745C20.4363 23.1683 20.4613 22.95 20.441 22.7335L20.0795 14.6625C20.422 14.4811 20.7194 14.225 20.9496 13.9132C21.1798 13.6014 21.337 13.2418 21.4095 12.861C21.5708 11.944 21.5141 11.002 21.244 10.111ZM20.4245 12.687C20.3713 12.9595 20.2475 13.2133 20.0654 13.4229C19.8833 13.6326 19.6494 13.7907 19.387 13.8815C19.2882 13.9186 19.2037 13.9861 19.1456 14.0742C19.0875 14.1623 19.0587 14.2666 19.0635 14.372L19.4435 22.8125C19.4522 22.8943 19.4433 22.9771 19.4174 23.0552C19.3915 23.1333 19.3493 23.205 19.2935 23.2655C18.9924 23.5636 18.5076 23.5636 18.2065 23.2655C18.148 23.2002 18.1045 23.1228 18.0791 23.0388C18.0537 22.9549 18.047 22.8663 18.0595 22.7795L18.4365 14.372C18.4413 14.2666 18.4125 14.1623 18.3544 14.0742C18.2963 13.9861 18.2118 13.9186 18.113 13.8815C17.8506 13.7907 17.6167 13.6326 17.4346 13.4229C17.2525 13.2133 17.1287 12.9595 17.0755 12.687C16.9418 11.9257 16.9889 11.1437 17.213 10.404L17.534 9.347C17.7824 8.67544 18.5281 8.33238 19.1998 8.58075C19.3752 8.64564 19.5345 8.74772 19.6668 8.87998C19.799 9.01225 19.9011 9.17157 19.966 9.347L20.287 10.404C20.5109 11.1438 20.558 11.9257 20.4245 12.687ZM13.5 7.5C13.3674 7.5 13.2402 7.55268 13.1464 7.64645C13.0527 7.74022 13 7.8674 13 8V12.293L11.6465 13.6465C11.597 13.6958 11.5584 13.755 11.5331 13.8202C11.5079 13.8854 11.4966 13.9552 11.5 14.025L11.9375 22.775C11.9427 22.8684 11.9285 22.9618 11.896 23.0494C11.8635 23.1371 11.8133 23.2171 11.7485 23.2845C11.4748 23.5606 11.0291 23.5626 10.7529 23.2889L10.7485 23.2845C10.6837 23.2171 10.6335 23.1371 10.601 23.0494C10.5685 22.9618 10.5543 22.8684 10.5595 22.775L11 14.025C11.0035 13.9552 10.9922 13.8855 10.9671 13.8203C10.942 13.7551 10.9034 13.6959 10.854 13.6465L9.5 12.293V8C9.5 7.8674 9.44732 7.74022 9.35355 7.64645C9.25979 7.55268 9.13261 7.5 9 7.5C8.86739 7.5 8.74021 7.55268 8.64645 7.64645C8.55268 7.74022 8.5 7.8674 8.5 8V12.5C8.50003 12.6326 8.55272 12.7598 8.6465 12.8535L9.9895 14.197L9.563 22.7265C9.51762 23.6582 10.2361 24.4503 11.1678 24.4957C12.0995 24.5411 12.8916 23.8226 12.937 22.8909C12.9397 22.8361 12.9397 22.7813 12.937 22.7266L12.5105 14.1971L13.8535 12.8536C13.9473 12.7598 14 12.6327 14 12.5001V8.00007C14 7.9344 13.9871 7.86938 13.962 7.80871C13.9368 7.74804 13.9 7.69291 13.8536 7.64647C13.8071 7.60004 13.752 7.5632 13.6914 7.53807C13.6307 7.51294 13.5657 7.5 13.5 7.5Z" fill="#1A1A1A"/>
<path d="M10.5 7.5C10.3674 7.5 10.2402 7.55268 10.1464 7.64645C10.0527 7.74021 10 7.86739 10 8V12C10 12.1326 10.0527 12.2598 10.1464 12.3536C10.2402 12.4473 10.3674 12.5 10.5 12.5C10.6326 12.5 10.7598 12.4473 10.8536 12.3536C10.9473 12.2598 11 12.1326 11 12V8C11 7.86739 10.9473 7.74021 10.8536 7.64645C10.7598 7.55268 10.6326 7.5 10.5 7.5ZM12 7.5C11.8674 7.5 11.7402 7.55268 11.6464 7.64645C11.5527 7.74021 11.5 7.86739 11.5 8V12C11.5 12.1326 11.5527 12.2598 11.6464 12.3536C11.7402 12.4473 11.8674 12.5 12 12.5C12.1326 12.5 12.2598 12.4473 12.3536 12.3536C12.4473 12.2598 12.5 12.1326 12.5 12V8C12.5 7.86739 12.4473 7.74021 12.3536 7.64645C12.2598 7.55268 12.1326 7.5 12 7.5Z" fill="#1A1A1A"/>
<path d="M15 0C6.71575 0 0 6.71575 0 15C0 23.2843 6.71575 30 15 30C23.2843 30 30 23.2843 30 15C29.9906 6.71963 23.2804 0.009375 15 0ZM15 29C7.268 29 1 22.732 1 15C1 7.268 7.268 1 15 1C22.732 1 29 7.268 29 15C28.9912 22.7283 22.7283 28.9912 15 29Z" fill="#1A1A1A"/>
<path d="M16.6233 24.3858C16.6167 24.3188 16.5968 24.2538 16.5645 24.1947C16.5323 24.1356 16.4884 24.0837 16.4356 24.042C16.3828 24.0002 16.3221 23.9696 16.2572 23.9519C16.1922 23.9342 16.1244 23.9298 16.0577 23.9389L16.0597 23.9384C15.3557 24.0202 14.6447 24.0202 13.9407 23.9384C13.8755 23.9308 13.8094 23.9361 13.7462 23.954C13.683 23.9718 13.6239 24.002 13.5724 24.0427C13.5209 24.0835 13.4778 24.1339 13.4458 24.1913C13.4138 24.2486 13.3934 24.3117 13.3857 24.3769C13.3781 24.4422 13.3833 24.5083 13.4012 24.5715C13.4191 24.6347 13.4493 24.6937 13.49 24.7453C13.5307 24.7968 13.5812 24.8398 13.6385 24.8718C13.6959 24.9039 13.759 24.9243 13.8242 24.9319C14.6049 25.0231 15.3935 25.0231 16.1742 24.9319C16.3062 24.9191 16.4276 24.8543 16.5119 24.7518C16.5961 24.6494 16.6362 24.5177 16.6233 24.3858ZM22.6502 8.557C22.608 8.50669 22.5563 8.46519 22.4981 8.43486C22.4399 8.40453 22.3762 8.38596 22.3108 8.38023C22.2454 8.3745 22.1795 8.3817 22.1169 8.40144C22.0543 8.42117 21.9961 8.45305 21.9458 8.49525L21.9437 8.497C21.8424 8.58247 21.7791 8.70471 21.7678 8.83683C21.7566 8.96894 21.7983 9.10012 21.8837 9.2015C24.8984 12.7803 24.6678 18.0721 21.3532 21.375C21.2607 21.4689 21.2091 21.5956 21.2095 21.7274C21.2099 21.8592 21.2623 21.9855 21.3553 22.0789C21.4484 22.1723 21.5745 22.2251 21.7063 22.226C21.8381 22.2268 21.965 22.1756 22.0592 22.0835C25.7428 18.4139 25.9997 12.5338 22.6502 8.557ZM11.6497 6.609L11.6488 6.60894L11.6472 6.609H11.6497ZM17.3587 5.2795C15.4047 4.81119 13.3553 4.93706 11.4732 5.641C11.3637 5.68223 11.2721 5.76058 11.2144 5.86239C11.1567 5.9642 11.1365 6.08302 11.1574 6.19817C11.1783 6.31332 11.2389 6.4175 11.3287 6.49255C11.4185 6.56761 11.5318 6.6088 11.6488 6.60894C11.7086 6.60866 11.7678 6.59767 11.8237 6.5765C13.5186 5.94268 15.3641 5.82951 17.1237 6.2515C17.1875 6.26693 17.2538 6.26964 17.3186 6.25947C17.3835 6.24931 17.4457 6.22646 17.5018 6.19224C17.5578 6.15802 17.6066 6.1131 17.6453 6.06004C17.6839 6.00698 17.7118 5.94682 17.7272 5.883C17.7426 5.81918 17.7454 5.75294 17.7352 5.68807C17.725 5.6232 17.7022 5.56097 17.668 5.50493C17.6337 5.44889 17.5888 5.40014 17.5358 5.36146C17.4827 5.32278 17.4225 5.29493 17.3587 5.2795ZM8.62472 21.35C7.79017 20.5169 7.12864 19.5269 6.67822 18.4371C6.2278 17.3473 5.99737 16.1792 6.00022 15C5.99526 13.0971 6.59803 11.2424 7.72072 9.706C7.76017 9.65352 7.7889 9.59377 7.80527 9.53018C7.82163 9.46659 7.82531 9.4004 7.8161 9.33538C7.80688 9.27037 7.78495 9.20781 7.75156 9.15127C7.71816 9.09473 7.67396 9.04533 7.62147 9.00588C7.56799 8.96568 7.507 8.93663 7.44209 8.92043C7.37718 8.90424 7.30969 8.90123 7.2436 8.9116C7.17751 8.92196 7.11417 8.94548 7.05734 8.98076C7.0005 9.01604 6.95132 9.06237 6.91272 9.117C4.0219 13.0913 4.44728 18.5769 7.91622 22.058C8.01023 22.1513 8.1374 22.2036 8.26987 22.2034C8.40234 22.2032 8.52933 22.1505 8.62304 22.0568C8.71674 21.9632 8.76953 21.8362 8.76985 21.7038C8.77016 21.5713 8.71798 21.4441 8.62472 21.35Z" fill="#1A1A1A"/>
</g>
<defs>
<clipPath id="clip0_124_1401">
<rect width="30" height="30" fill="white"/>
</clipPath>
</defs>
</svg>
