<svg width="30" height="30" viewBox="0 0 30 30" fill="none" xmlns="http://www.w3.org/2000/svg">
<g clip-path="url(#clip0_124_1291)">
<path d="M29.9977 27.9519L28.4977 11.9575C28.49 11.8745 28.4615 11.7947 28.4151 11.7254C28.3686 11.6562 28.3055 11.5996 28.2316 11.561L22.4816 8.55613C22.471 8.55057 22.4586 8.55174 22.4476 8.54699C22.4149 8.53281 22.3801 8.52613 22.344 8.51916C22.3094 8.51236 22.2765 8.50445 22.2414 8.50504C22.2335 8.50516 22.2267 8.50146 22.2187 8.50193C22.1903 8.50369 22.1665 8.51682 22.1397 8.52309C22.1125 8.52936 22.0842 8.52666 22.0581 8.53756L20.278 9.27754C20.0229 9.38348 19.9023 9.67621 20.0083 9.93109C20.0334 9.99176 20.0703 10.0469 20.1167 10.0933C20.1632 10.1397 20.2184 10.1765 20.2791 10.2015C20.3398 10.2266 20.4049 10.2394 20.4705 10.2393C20.5362 10.2392 20.6012 10.2261 20.6618 10.2009L21.7946 9.73L22.728 24.6517L15.4999 27.2842V16.903C15.4999 16.7704 15.4473 16.6433 15.3535 16.5495C15.2597 16.4557 15.1326 16.4031 15 16.4031C14.8674 16.4031 14.7402 16.4557 14.6464 16.5495C14.5527 16.6433 14.5 16.7704 14.5 16.903V27.2842L7.27198 24.6517L8.20538 9.73L9.33811 10.2009C9.59346 10.307 9.88596 10.1864 9.99166 9.93109C10.0976 9.67621 9.97702 9.38348 9.7219 9.27754L7.94188 8.53756C7.91586 8.52678 7.88762 8.52941 7.86055 8.5232C7.83366 8.51693 7.80969 8.50375 7.78122 8.50193C7.77325 8.50152 7.76645 8.50521 7.75854 8.50516C7.72221 8.50451 7.68834 8.51289 7.65254 8.52016C7.61903 8.52701 7.58651 8.53299 7.55581 8.54611C7.54368 8.55127 7.53008 8.55004 7.51831 8.55613L1.76832 11.561C1.69443 11.5997 1.63137 11.6562 1.58489 11.7254C1.53841 11.7947 1.50998 11.8745 1.50219 11.9575L0.00219196 27.9519C-0.00609012 28.04 0.00918953 28.1288 0.046468 28.2091C0.0837465 28.2894 0.141686 28.3584 0.21436 28.4089C0.287023 28.4595 0.371792 28.4898 0.460019 28.4969C0.548246 28.504 0.636773 28.4875 0.716567 28.4492L6.77686 25.5357L14.8289 28.4683C14.9394 28.5088 15.0607 28.5088 15.1712 28.4683L23.2232 25.5357L29.2835 28.4492C29.3633 28.4875 29.4518 28.504 29.54 28.4969C29.6282 28.4899 29.713 28.4595 29.7857 28.409C29.8583 28.3584 29.9162 28.2894 29.9534 28.2091C29.9907 28.1288 30.006 28.04 29.9977 27.9519ZM6.26879 24.6701L1.0802 27.1647L2.47227 12.3215L7.19557 9.85305L6.26879 24.6701ZM23.731 24.6701L22.8042 9.85305L27.5275 12.3215L28.9196 27.1647L23.731 24.6701Z" fill="#333333"/>
<path d="M10.5944 8.59228L14.5705 15.2558C14.6148 15.3302 14.6777 15.3917 14.753 15.4345C14.8283 15.4772 14.9134 15.4997 14.9999 15.4997C15.0865 15.4997 15.1716 15.4772 15.2468 15.4345C15.3221 15.3917 15.385 15.3302 15.4294 15.2558L19.4162 8.57323C19.6081 8.21681 19.7365 7.91481 19.82 7.62231C19.9396 7.20307 20.0002 6.76921 20 6.33325C20 5.6787 19.8669 5.04372 19.6042 4.4453C19.3513 3.86938 18.9892 3.3523 18.5288 2.90892C18.0698 2.46677 17.5352 2.1196 16.9401 1.8772C15.7097 1.37622 14.2902 1.37622 13.0598 1.8772C12.4648 2.1196 11.9301 2.46683 11.4714 2.90892C11.0107 3.3523 10.6486 3.86939 10.3957 4.44554C10.1331 5.04366 10 5.6787 10 6.33325C9.99978 6.76929 10.0603 7.20323 10.1799 7.62255C10.2634 7.91476 10.3918 8.21675 10.5944 8.59228ZM11.3113 4.84761C11.5115 4.39157 11.7988 3.98165 12.165 3.62909C12.5322 3.27536 12.9602 2.99751 13.4368 2.80339C13.9319 2.60171 14.4578 2.4997 15 2.4997C15.5422 2.4997 16.0681 2.60177 16.5632 2.80339C17.0397 2.99745 17.4678 3.2753 17.8352 3.62909C18.2011 3.98165 18.4885 4.39151 18.6887 4.84737C18.8947 5.31558 19.0008 5.82165 19 6.33319C19 6.6779 18.9524 7.01921 18.8587 7.34763C18.7955 7.56882 18.6929 7.80759 18.5467 8.08005L15 14.0239L11.4641 8.09909C11.3071 7.80759 11.2046 7.56882 11.1413 7.34786C11.0474 7.01784 10.9998 6.67634 11 6.33319C10.9992 5.82173 11.1052 5.31572 11.3113 4.84761Z" fill="#333333"/>
<path d="M15 9.0012C16.3784 9.0012 17.5 7.8796 17.5 6.50118C17.5 5.12276 16.3784 4.00116 15 4.00116C13.6216 4.00116 12.5 5.12276 12.5 6.50118C12.5 7.8796 13.6216 9.0012 15 9.0012ZM15 5.00118C15.8272 5.00118 16.5 5.67401 16.5 6.50118C16.5 7.32835 15.8272 8.00118 15 8.00118C14.1729 8.00118 13.5 7.32835 13.5 6.50118C13.5 5.67401 14.1729 5.00118 15 5.00118Z" fill="#333333"/>
</g>
<defs>
<clipPath id="clip0_124_1291">
<rect width="30" height="30" fill="white"/>
</clipPath>
</defs>
</svg>
