<svg width="60" height="60" viewBox="0 0 60 60" fill="none" xmlns="http://www.w3.org/2000/svg">
<path fill-rule="evenodd" clip-rule="evenodd" d="M26.0103 56.0109C11.6626 56.0109 0 44.347 0 30.0006C0 15.6543 11.6626 3.99036 26.0103 3.99036C33.0485 3.99036 39.6231 6.72398 44.5602 11.7414C48.8468 9.24446 53.748 7.42296 59.2429 6.91776C60.0097 6.82779 60.2948 7.96553 59.5848 8.28388C59.4685 8.33094 54.2559 10.7116 47.8309 15.801C50.5949 20.0156 52.0206 24.9182 52.0206 29.9993C52.0206 44.347 40.358 56.0109 26.0103 56.0109ZM43.3449 12.4764C38.722 7.87557 32.6139 5.35648 26.0103 5.35648C12.4432 5.40492 1.41457 16.4335 1.41457 30.0006C1.41457 43.5677 12.4432 54.5964 26.0103 54.5964C39.5774 54.5964 50.606 43.5664 50.606 30.0006C50.606 25.2531 49.2565 20.6828 46.7236 16.6951C45.6951 17.5429 44.6903 18.4189 43.7104 19.3222C51.824 32.6222 42.3415 50.6419 26.0103 50.6419C14.6398 50.6419 5.3676 41.3698 5.3676 30.0006C5.3676 18.6315 14.6398 9.35657 26.0103 9.35657C31.2312 9.35657 36.1794 11.3054 39.9815 14.81C41.067 13.9815 42.1893 13.2024 43.3449 12.475V12.4764ZM46.2267 15.2446C46.3188 15.1013 46.4548 14.9916 46.6142 14.9318C49.3597 12.7238 52.2589 10.714 55.2899 8.91781C41.5788 11.9933 32.1115 23.5091 27.5231 30.4879C27.2352 30.8976 26.5888 30.8713 26.3522 30.4394C24.986 28.1459 21.033 22.4365 18.006 22.4365C17.8606 22.4365 17.7153 22.4365 17.5686 22.4849C15.4703 22.9237 15.0301 23.851 14.8349 24.7299C14.6398 25.5604 14.7865 25.9009 16.0557 26.73C21.4233 30.146 25.2296 37.5634 26.694 40.8341C30.5793 31.4664 36.4327 24.2178 42.0923 18.8696C42.1328 18.7785 42.1912 18.6964 42.2639 18.6282C42.3367 18.5599 42.4223 18.507 42.5159 18.4723C43.7169 17.3558 44.9545 16.2793 46.2267 15.2446ZM26.694 43.3712C26.5566 43.3691 26.4229 43.3263 26.3098 43.2482C26.1967 43.1701 26.1094 43.0602 26.0587 42.9324C26.0103 42.8355 21.8137 32.0007 15.3235 27.9009C14.0543 27.1203 13.0785 26.2912 13.4688 24.4365C13.8591 22.6316 15.0785 21.606 17.2751 21.1188C21.1783 20.2883 25.3764 26.3397 26.9363 28.8283C29.6214 24.9251 33.6215 19.9257 38.8812 15.6764C35.3532 12.4862 30.7654 10.7211 26.0089 10.7241C15.4204 10.7241 6.78355 19.361 6.78355 29.9522C6.78355 40.5407 15.4204 49.1776 26.0089 49.1776C36.5974 49.1776 45.237 40.5407 45.237 29.9522C45.237 26.5583 44.3374 23.2475 42.6529 20.316C36.9365 25.8054 31.0706 33.2851 27.3764 42.9809C27.3075 43.1006 27.208 43.1998 27.0881 43.2684C26.9681 43.337 26.8322 43.3724 26.694 43.3712Z" fill="#0E5103"/>
<path fill-rule="evenodd" clip-rule="evenodd" d="M16.0554 26.73C21.423 30.146 25.2293 37.5635 26.6937 40.8342C30.5789 31.4665 36.4323 24.2179 42.092 18.8696C42.1325 18.7785 42.1908 18.6964 42.2636 18.6282C42.3363 18.56 42.422 18.507 42.5155 18.4724C43.7165 17.3559 44.9541 16.2794 46.2263 15.2446C46.3185 15.1014 46.4544 14.9917 46.6139 14.9318C49.3594 12.7238 52.2586 10.7141 55.2895 8.91785C41.5785 11.9934 32.1111 23.5092 27.5228 30.4879C27.2349 30.8976 26.5885 30.8713 26.3518 30.4395C24.9857 28.146 21.0327 22.4365 18.0056 22.4365C17.8603 22.4365 17.7149 22.4365 17.5682 22.4849C15.4699 22.9237 15.0298 23.8511 14.8346 24.73C14.6394 25.5604 14.7862 25.9009 16.0554 26.73Z" fill="#0E5103"/>
<path fill-rule="evenodd" clip-rule="evenodd" d="M26.0108 50.6419C14.6403 50.6419 5.36807 41.3697 5.36807 30.0006C5.36807 18.6315 14.6403 9.35654 26.0108 9.35654C31.2303 9.35654 36.1785 11.3054 39.982 14.8099C41.0675 13.9815 42.1898 13.2023 43.3454 12.4749C38.7225 7.87553 32.6144 5.35645 26.0108 5.35645C12.4437 5.40489 1.41504 16.4335 1.41504 30.0006C1.41504 43.5677 12.4437 54.5963 26.0108 54.5963C39.5779 54.5963 50.6065 43.5663 50.6065 30.0006C50.6065 25.2531 49.257 20.6827 46.724 16.6951C45.6956 17.5428 44.6908 18.4189 43.7108 19.3222C51.8245 32.6221 42.3419 50.6419 26.0108 50.6419Z" fill="#E0FBDC"/>
</svg>
