<svg width="40" height="40" viewBox="0 0 40 40" fill="none" xmlns="http://www.w3.org/2000/svg">
<path d="M20 0C12.9715 0 7.10938 5.66172 7.10938 12.8906C7.10938 15.6408 7.93578 18.0931 9.5218 20.3911L19.0135 35.202C19.474 35.922 20.527 35.9206 20.9865 35.202L30.5194 20.3407C32.0713 18.1469 32.8906 15.5709 32.8906 12.8906C32.8906 5.78273 27.1079 0 20 0ZM20 18.75C16.7693 18.75 14.1406 16.1213 14.1406 12.8906C14.1406 9.65992 16.7693 7.03125 20 7.03125C23.2307 7.03125 25.8594 9.65992 25.8594 12.8906C25.8594 16.1213 23.2307 18.75 20 18.75Z" fill="#FCFCFC"/>
<path d="M29.1613 26.9293L23.2604 36.1549C21.733 38.5363 18.2585 38.5285 16.7384 36.1571L10.828 26.9317C5.62766 28.1341 2.42188 30.3367 2.42188 32.9688C2.42188 37.5361 11.4788 40 20 40C28.5212 40 37.5781 37.5361 37.5781 32.9688C37.5781 30.3348 34.3679 28.131 29.1613 26.9293Z" fill="#FCFCFC"/>
</svg>
