<svg width="80" height="81" viewBox="0 0 80 81" fill="none" xmlns="http://www.w3.org/2000/svg">
<g clip-path="url(#clip0_124_947)">
<path d="M40.1336 28.4101C41.2347 28.4101 42.1264 27.5179 42.1264 26.4173C42.1264 25.3168 41.2347 24.4245 40.1336 24.4245C31.3294 24.4245 24.1919 31.562 24.1919 40.3668C24.1919 49.1712 31.3294 56.3087 40.1336 56.3087C48.9386 56.3087 56.0761 49.1712 56.0761 40.3668C56.0761 39.2659 55.1838 38.3742 54.0833 38.3742C52.9828 38.3742 52.0905 39.2659 52.0905 40.3668C52.0905 46.9703 46.7377 52.3237 40.1336 52.3237C33.5303 52.3237 28.1769 46.9703 28.1769 40.3668C28.1769 33.7629 33.5303 28.4101 40.1336 28.4101Z" fill="#E0FBDC"/>
<path d="M78.1561 28.5304C77.8098 27.4848 76.682 26.9179 75.6358 27.2639C74.6141 27.602 74.0451 28.6896 74.3498 29.7217C80.3092 48.6994 69.7562 68.9147 50.7786 74.8742C31.8016 80.8336 11.5862 70.2808 5.62683 51.3032C-0.33331 32.3256 10.2203 12.1101 29.1973 6.15062C36.222 3.94482 43.7539 3.94482 50.7786 6.15062C51.8333 6.46859 52.946 5.87172 53.2641 4.81703C53.5772 3.77813 53.0028 2.68016 51.9707 2.34454C30.8983 -4.26685 8.45574 7.45625 1.8445 28.5292C-4.7669 49.6015 6.95667 72.0441 28.0291 78.6553C49.1021 85.2667 71.5441 73.5436 78.1553 52.4707C80.6002 44.6779 80.6004 36.3233 78.1559 28.5304H78.1561Z" fill="#E0FBDC"/>
<path d="M43.9289 14.7371C43.9392 13.6024 43.0676 12.6539 41.936 12.5691C41.3409 12.5185 40.7453 12.4678 40.1342 12.4678C24.7259 12.4678 12.2351 24.9586 12.2351 40.3669C12.2351 55.7747 24.7259 68.2655 40.1342 68.2655C55.542 68.2655 68.0328 55.7747 68.0328 40.3671C68.0328 39.6461 67.9889 38.926 67.9004 38.2106C67.741 37.1169 66.7254 36.3594 65.6317 36.5188C64.5379 36.6774 63.7804 37.6938 63.9392 38.7875C63.9453 38.8289 63.9526 38.8697 63.961 38.9113C64.0045 39.3941 64.0471 39.8725 64.0471 40.3658C64.0478 53.5731 53.3417 64.2792 40.1348 64.2805C26.9275 64.2811 16.2212 53.5742 16.2207 40.3675C16.2201 27.1608 26.9256 16.4539 40.1331 16.4535H40.1335C40.6281 16.4535 41.107 16.4961 41.5887 16.5388L41.9621 16.57C43.0035 16.6146 43.8835 15.8064 43.9276 14.7652C43.9282 14.7553 43.9282 14.7463 43.9289 14.7371Z" fill="#E0FBDC"/>
<path d="M52.0903 18.4461V25.5922L38.7247 38.9577C37.9332 39.7223 37.9113 40.9841 38.676 41.7756C39.4408 42.5672 40.7025 42.5892 41.4939 41.8245C41.5105 41.8086 41.5269 41.7922 41.5428 41.7756L54.9085 28.4102H62.0543C62.5829 28.4102 63.0894 28.2002 63.4636 27.8261L75.4199 15.8692C76.198 15.0911 76.198 13.8295 75.4199 13.0513C75.2349 12.8663 75.0153 12.7195 74.7735 12.6194C74.5318 12.5193 74.2728 12.4678 74.0111 12.4678H68.0327V6.48938C68.0327 5.38891 67.1405 4.49657 66.0393 4.49719C65.5111 4.49732 65.0047 4.70718 64.6313 5.08063L52.6744 17.0375C52.4892 17.2224 52.3423 17.4419 52.2421 17.6836C52.1419 17.9253 52.0903 18.1844 52.0903 18.4461ZM56.076 19.2714L64.0471 11.3002V14.4606C64.0471 15.5611 64.9394 16.4534 66.0399 16.4534H69.2003L61.2291 24.4245H56.076V19.2714Z" fill="#E0FBDC"/>
</g>
<defs>
<clipPath id="clip0_124_947">
<rect width="80" height="80" fill="white" transform="translate(0 0.5)"/>
</clipPath>
</defs>
</svg>
