<svg width="30" height="30" viewBox="0 0 30 30" fill="none" xmlns="http://www.w3.org/2000/svg">
<path d="M26.2969 7.96875C26.25 7.875 26.25 7.82813 26.2031 7.78125L26.1094 7.6875L15.2344 1.45312C15.0938 1.35938 14.9062 1.35938 14.7656 1.45312L3.89062 7.73438C3.84375 7.73438 3.84375 7.78125 3.79688 7.82813C3.75 7.82813 3.75 7.875 3.70312 7.92188V7.96875C3.70312 8.01562 3.65625 8.0625 3.65625 8.10937V21.8437C3.65625 22.0312 3.75 22.1719 3.89062 22.2656L14.7656 28.5469H14.8594C14.9063 28.5469 14.9531 28.5938 15 28.5938C15.0469 28.5938 15.0938 28.5938 15.1406 28.5469H15.2344L26.1094 22.2656C26.25 22.1719 26.3438 22.0312 26.3438 21.8437V8.15625C26.3438 8.0625 26.3438 8.01562 26.2969 7.96875ZM15 2.4375L24.9375 8.15625L22.125 9.75L12.1875 4.03125L15 2.4375ZM11.25 4.54688L21.1875 10.3125L19.0312 11.5781L9.09375 5.8125L11.25 4.54688ZM19.5 12.375L21.7031 11.1094V15.2344L19.5 16.5V12.375ZM8.15625 6.375L18.0938 12.0937L15 13.875L5.0625 8.15625L8.15625 6.375ZM4.59375 8.95312L14.5312 14.6719V27.3281L4.59375 21.6094V8.95312ZM15.4688 27.3281V14.6719L18.5625 12.8906V17.25C18.5625 17.4375 18.6562 17.5781 18.7969 17.6719C18.8906 17.7188 18.9375 17.7188 19.0312 17.7188C19.125 17.7188 19.1719 17.7188 19.2656 17.6719L22.4062 15.8906C22.5469 15.7969 22.6406 15.6562 22.6406 15.4688V10.5469L25.4531 8.95312V21.6094L15.4688 27.3281Z" fill="#1A1A1A"/>
<path d="M10.2656 18.9375L6.5625 16.7812C6.42188 16.6875 6.23438 16.6875 6.09375 16.7812C5.95312 16.875 5.85938 17.0156 5.85938 17.2031V20.1563C5.85938 20.3438 5.95312 20.4844 6.09375 20.5781L9.79687 22.7344C9.89062 22.7812 9.9375 22.7812 10.0312 22.7812C10.125 22.7812 10.1719 22.7812 10.2656 22.7344C10.4062 22.6406 10.5 22.5 10.5 22.3125V19.3594C10.5 19.1719 10.4062 18.9844 10.2656 18.9375ZM9.5625 21.4688L6.79688 19.875V18L9.5625 19.5938V21.4688ZM20.25 21.6094L17.0156 23.4844C16.7812 23.625 16.7344 23.9062 16.8281 24.1406C16.9219 24.2812 17.0625 24.375 17.25 24.375C17.3438 24.375 17.3906 24.375 17.4844 24.3281L20.7188 22.4531C20.9531 22.3125 21 22.0312 20.9062 21.7969C20.7187 21.5625 20.4375 21.4687 20.25 21.6094ZM20.25 19.2188L17.0156 21.0938C16.7812 21.2344 16.7344 21.5156 16.8281 21.75C16.9219 21.8906 17.0625 21.9844 17.25 21.9844C17.3438 21.9844 17.3906 21.9844 17.4844 21.9375L20.7188 20.0625C20.9531 19.9219 21 19.6406 20.9062 19.4063C20.7187 19.1719 20.4375 19.125 20.25 19.2188Z" fill="#1A1A1A"/>
</svg>
