<svg width="50" height="51" viewBox="0 0 50 51" fill="none" xmlns="http://www.w3.org/2000/svg">
<g clip-path="url(#clip0_178_235)">
<path fill-rule="evenodd" clip-rule="evenodd" d="M12.812 0.5H29.5286L43.6965 15.2676V43.9908C43.6965 47.589 40.7855 50.5 37.1997 50.5H12.812C9.21377 50.5 6.30273 47.589 6.30273 43.9908V7.00922C6.30267 3.41103 9.21371 0.5 12.812 0.5Z" fill="#E5252A"/>
<path fill-rule="evenodd" clip-rule="evenodd" d="M29.5156 0.5V15.1552H43.696L29.5156 0.5Z" fill="white"/>
<path d="M13.5361 37.8064V28.6735H17.4217C18.3837 28.6735 19.1459 28.9358 19.7206 29.4731C20.2953 29.9978 20.5827 30.71 20.5827 31.597C20.5827 32.484 20.2953 33.1962 19.7206 33.7209C19.1459 34.2582 18.3837 34.5205 17.4217 34.5205H15.8725V37.8064H13.5361ZM15.8725 32.5341H17.1593C17.5091 32.5341 17.784 32.4591 17.9714 32.2842C18.1588 32.1218 18.2588 31.8969 18.2588 31.5971C18.2588 31.2972 18.1589 31.0723 17.9714 30.9099C17.7841 30.735 17.5092 30.6601 17.1593 30.6601H15.8725V32.5341ZM21.5446 37.8064V28.6735H24.7805C25.4177 28.6735 26.0174 28.7609 26.5796 28.9483C27.1418 29.1357 27.6541 29.3981 28.1038 29.7604C28.5536 30.1102 28.9159 30.585 29.1783 31.1847C29.4281 31.7844 29.5656 32.4716 29.5656 33.2462C29.5656 34.0083 29.4282 34.6955 29.1783 35.2951C28.9159 35.8949 28.5536 36.3696 28.1038 36.7194C27.654 37.0817 27.1418 37.3441 26.5796 37.5315C26.0174 37.7189 25.4177 37.8064 24.7805 37.8064H21.5446ZM23.831 35.8199H24.5056C24.8679 35.8199 25.2053 35.7825 25.5176 35.695C25.8175 35.6075 26.1048 35.4701 26.3797 35.2827C26.6421 35.0953 26.8545 34.8329 27.0044 34.4831C27.1543 34.1333 27.2293 33.7209 27.2293 33.2462C27.2293 32.7589 27.1543 32.3466 27.0044 31.9968C26.8545 31.647 26.6421 31.3847 26.3797 31.1972C26.1048 31.0099 25.8175 30.8724 25.5176 30.785C25.2053 30.6975 24.8679 30.66 24.5056 30.66H23.831V35.8199ZM30.74 37.8064V28.6735H37.2368V30.66H33.0764V32.1217H36.3997V34.0958H33.0764V37.8064H30.74Z" fill="white"/>
</g>
<defs>
<clipPath id="clip0_178_235">
<rect width="50" height="50" fill="white" transform="translate(0 0.5)"/>
</clipPath>
</defs>
</svg>
