<svg width="36" height="36" viewBox="0 0 36 36" fill="none" xmlns="http://www.w3.org/2000/svg">
<path d="M28.1576 26.3876L30.5932 30.6192L28.6288 30.4108C28.5287 30.4 28.4278 30.4212 28.3406 30.4714C28.2533 30.5216 28.1842 30.5981 28.1432 30.69L27.3288 32.5296L24.5824 27.79C24.716 27.74 24.8463 27.6815 24.9724 27.6148C25.4368 27.3668 25.9432 27.1568 26.566 27.138C27.3452 27.1172 27.7784 26.9084 28.1576 26.3876ZM19.6244 26.3836C20.0036 26.9084 20.4392 27.1168 21.2188 27.138C21.8416 27.1568 22.358 27.346 22.8144 27.6148C22.9332 27.6836 23.0476 27.7396 23.16 27.7852L20.4456 32.5232L19.6332 30.69C19.592 30.5978 19.5225 30.5211 19.4349 30.4709C19.3473 30.4208 19.246 30.3997 19.1456 30.4108L17.1808 30.6192L19.6244 26.3836ZM26.1452 15.4816C26.6492 16.0128 27.1704 16.3568 27.8992 16.5984C28.4116 16.7668 28.6096 16.9272 28.7308 17.5588C28.8764 18.3252 29.1076 18.8504 29.5976 19.4652C29.8928 19.836 30.012 20.1524 29.7768 20.7048C29.4932 21.3736 29.4264 22.0216 29.4872 22.782C29.5288 23.3152 29.4972 23.5572 28.968 23.9252C28.3136 24.3836 27.9492 24.7776 27.5848 25.5044C27.3748 25.9232 27.1136 26.1752 26.5156 26.1852C25.7264 26.2004 25.1724 26.3336 24.5036 26.7816C24.0204 27.1064 23.668 27.008 23.2804 26.7816C22.5868 26.3748 22.0576 26.2004 21.2676 26.1852C20.6696 26.1752 20.4096 25.9232 20.1996 25.5044C19.8348 24.7776 19.4724 24.3836 18.816 23.9252C18.2892 23.5568 18.2556 23.3152 18.2972 22.782C18.3572 22.0216 18.2928 21.3736 18.0076 20.7048C17.7744 20.1528 17.8908 19.836 18.1868 19.4652C18.6764 18.8508 18.908 18.3252 19.0556 17.5588C19.1748 16.9272 19.3748 16.7672 19.8852 16.5984C20.614 16.3568 21.1368 16.0148 21.6392 15.4816C22.0372 15.0564 22.4 15.0108 22.858 15.1152C23.608 15.2884 24.26 15.2672 24.9292 15.1152C25.4452 14.9984 25.8664 15.1852 26.1452 15.4816ZM25.3288 14.0816C25.1388 14.0836 24.9368 14.1172 24.7204 14.182C24.1312 14.3588 23.5724 14.3004 23.0644 14.182C22.8638 14.1316 22.6583 14.1034 22.4516 14.098C21.8788 14.0944 21.414 14.3296 20.9576 14.8108C20.508 15.286 20.0976 15.5108 19.566 15.698C18.6992 16.0028 18.2828 16.5188 18.118 17.3648C17.9928 18.0084 17.7824 18.436 17.4304 18.886C16.866 19.6064 16.7928 20.2444 17.1136 21.0464C17.3536 21.6444 17.3928 22.1484 17.3452 22.7088C17.268 23.6128 17.5576 24.2088 18.2536 24.696C18.5587 24.9098 18.8267 25.1722 19.0468 25.4728L15.8848 30.9524C15.6888 31.29 15.9592 31.7088 16.3472 31.6672L18.9012 31.396L19.9556 33.7732C19.9912 33.8536 20.0483 33.9226 20.1207 33.9724C20.1932 34.0223 20.278 34.0511 20.3658 34.0556C20.4536 34.0601 20.5409 34.0402 20.6181 33.998C20.6952 33.9559 20.7592 33.8931 20.8028 33.8168L23.872 28.4648L26.972 33.8188C27.0159 33.895 27.0801 33.9576 27.1574 33.9995C27.2347 34.0415 27.3222 34.0612 27.41 34.0565C27.4979 34.0518 27.5827 34.0228 27.655 33.9728C27.7274 33.9228 27.7845 33.8537 27.82 33.7732L28.874 31.396L31.4284 31.6672C31.816 31.7088 32.0868 31.29 31.8904 30.9524L28.734 25.4772C28.9554 25.1746 29.2252 24.9106 29.5324 24.6956C30.228 24.208 30.5152 23.6124 30.4384 22.7084C30.3904 22.148 30.43 21.644 30.6696 21.046C30.9908 20.244 30.9196 19.606 30.3532 18.8856C30.0008 18.4356 29.7904 18.0084 29.6672 17.3644C29.5028 16.5184 29.0844 16.0024 28.2196 15.6976C27.6864 15.5108 27.278 15.2856 26.828 14.8104C26.3704 14.3296 25.8996 14.0712 25.3288 14.0816Z" fill="#0E5103"/>
<path fill-rule="evenodd" clip-rule="evenodd" d="M23.0472 17.3852C22.2783 17.5664 21.5877 17.9894 21.0768 18.592C20.0268 19.8276 19.8852 21.6128 20.7248 23.0048C21.5644 24.3964 23.2016 25.0816 24.7684 24.6924C26.3332 24.3004 27.4668 22.9256 27.5768 21.298C27.585 21.2339 27.5799 21.1688 27.5619 21.1067C27.5439 21.0446 27.5133 20.9869 27.472 20.9371C27.4308 20.8874 27.3797 20.8466 27.3221 20.8174C27.2644 20.7881 27.2014 20.7711 27.1368 20.7672C27.0724 20.7632 27.0078 20.7723 26.947 20.7941C26.8863 20.8159 26.8306 20.8499 26.7834 20.894C26.7362 20.9381 26.6985 20.9913 26.6726 21.0505C26.6467 21.1096 26.6332 21.1734 26.6328 21.238C26.5516 22.4632 25.7036 23.4816 24.5392 23.7736C23.3768 24.0632 22.164 23.5592 21.5348 22.5152C21.2284 22.0046 21.0893 21.4108 21.1371 20.8172C21.185 20.2236 21.4173 19.6598 21.8016 19.2048C22.5872 18.2776 23.858 17.9776 24.962 18.4544C25.0191 18.4792 25.0805 18.4925 25.1426 18.4935C25.2048 18.4946 25.2666 18.4834 25.3244 18.4605C25.3823 18.4377 25.4351 18.4037 25.4798 18.3605C25.5245 18.3173 25.5603 18.2656 25.585 18.2086C25.6098 18.1516 25.6231 18.0902 25.6242 18.028C25.6252 17.9658 25.614 17.904 25.5912 17.8462C25.5683 17.7883 25.5344 17.7356 25.4911 17.6908C25.4479 17.6461 25.3963 17.6104 25.3392 17.5856C24.6168 17.2735 23.8129 17.2032 23.0472 17.3852Z" fill="#0E5103"/>
<path fill-rule="evenodd" clip-rule="evenodd" d="M27.3622 18.0816C27.2391 18.0835 27.1217 18.1338 27.0354 18.2216L23.7666 21.4316L22.8834 20.5504C22.4354 20.1024 21.7666 20.7756 22.2146 21.2216L23.221 22.228C23.5142 22.5212 24.0082 22.5192 24.3062 22.228L27.6978 18.8964C28.0058 18.5984 27.7914 18.0752 27.3622 18.0816Z" fill="#0E5103"/>
<path fill-rule="evenodd" clip-rule="evenodd" d="M11.1102 2.01477C10.9782 2.01477 10.8538 2.07317 10.7682 2.17117L4.15976 9.76677C4.08735 9.84932 4.04741 9.95537 4.04736 10.0652V33.5272C4.04736 33.7796 4.24936 33.9836 4.50176 33.9816H17.7206C17.7818 33.9844 17.843 33.9748 17.9004 33.9533C17.9578 33.9319 18.0103 33.899 18.0547 33.8568C18.0991 33.8145 18.1345 33.7637 18.1587 33.7074C18.183 33.6511 18.1956 33.5905 18.1958 33.5292C18.1958 33.2708 17.9786 33.0648 17.7206 33.0748H4.95416V10.5172H11.9106C12.0302 10.5165 12.1448 10.4687 12.2293 10.3841C12.3139 10.2994 12.3616 10.1848 12.3622 10.0652V4.86917C12.3647 4.80805 12.3549 4.74705 12.3333 4.68982C12.3117 4.6326 12.2787 4.58034 12.2364 4.53619C12.194 4.49203 12.1432 4.4569 12.0869 4.4329C12.0307 4.4089 11.9701 4.39653 11.909 4.39653C11.8478 4.39653 11.7873 4.4089 11.731 4.4329C11.6747 4.4569 11.6239 4.49203 11.5816 4.53619C11.5392 4.58034 11.5063 4.6326 11.4846 4.68982C11.463 4.74705 11.4532 4.80805 11.4558 4.86917V9.61077H5.49536L11.3162 2.92077H26.6646V12.8312C26.6639 12.8915 26.6753 12.9513 26.6979 13.0071C26.7205 13.063 26.754 13.1139 26.7964 13.1567C26.8388 13.1996 26.8893 13.2336 26.9449 13.2568C27.0006 13.28 27.0603 13.292 27.1206 13.292C27.3726 13.292 27.5786 13.0856 27.575 12.8312V2.47157C27.5752 2.35077 27.5274 2.23482 27.4423 2.14918C27.3571 2.06353 27.2414 2.01519 27.1206 2.01477H11.1102Z" fill="#0E5103"/>
<path d="M8.40816 18.3648C7.80376 18.3648 7.84736 19.2716 8.45176 19.2716H14.683C15.3118 19.2716 15.3118 18.3612 14.683 18.3648C12.7578 18.3776 10.137 18.3648 8.40816 18.3648ZM8.40816 22.4188C7.80376 22.4188 7.84736 23.3252 8.45176 23.3252H14.683C15.3118 23.3252 15.3118 22.4148 14.683 22.4188C12.7578 22.4292 10.137 22.4188 8.40816 22.4188ZM8.40816 26.4728C7.80376 26.4728 7.84736 27.3796 8.45176 27.3796H14.683C15.3118 27.3796 15.3118 26.4692 14.683 26.4728C12.7578 26.4856 10.137 26.4728 8.40816 26.4728ZM8.40816 14.3108C7.80376 14.3108 7.84736 15.2168 8.45176 15.2168H16.7162C17.3458 15.2168 17.3458 14.3064 16.7162 14.3108C14.7894 14.3208 10.137 14.3108 8.40816 14.3108Z" fill="#0E5103"/>
</svg>
