<svg width="36" height="36" viewBox="0 0 36 36" fill="none" xmlns="http://www.w3.org/2000/svg">
<path d="M15.1875 26.4375H16.875V27.5625H15.1875V26.4375ZM19.125 26.4375H20.8125V27.5625H19.125V26.4375ZM6.75 18H10.125V19.125H6.75V18ZM6.1875 23.625H10.6875V24.75H6.1875V23.625ZM6.1875 26.4375H10.6875V27.5625H6.1875V26.4375ZM25.3125 19.6875H29.8125C29.9617 19.6875 30.1048 19.6282 30.2102 19.5227C30.3157 19.4173 30.375 19.2742 30.375 19.125V16.875C30.375 16.7258 30.3157 16.5827 30.2102 16.4773C30.1048 16.3718 29.9617 16.3125 29.8125 16.3125H25.3125C25.1633 16.3125 25.0202 16.3718 24.9148 16.4773C24.8093 16.5827 24.75 16.7258 24.75 16.875V19.125C24.75 19.2742 24.8093 19.4173 24.9148 19.5227C25.0202 19.6282 25.1633 19.6875 25.3125 19.6875ZM25.875 17.4375H29.25V18.5625H25.875V17.4375ZM25.3125 24.1875H29.8125C29.9617 24.1875 30.1048 24.1282 30.2102 24.0227C30.3157 23.9173 30.375 23.7742 30.375 23.625V21.375C30.375 21.2258 30.3157 21.0827 30.2102 20.9773C30.1048 20.8718 29.9617 20.8125 29.8125 20.8125H25.3125C25.1633 20.8125 25.0202 20.8718 24.9148 20.9773C24.8093 21.0827 24.75 21.2258 24.75 21.375V23.625C24.75 23.7742 24.8093 23.9173 24.9148 24.0227C25.0202 24.1282 25.1633 24.1875 25.3125 24.1875ZM25.875 21.9375H29.25V23.0625H25.875V21.9375ZM25.3125 28.6875H29.8125C29.9617 28.6875 30.1048 28.6282 30.2102 28.5227C30.3157 28.4173 30.375 28.2742 30.375 28.125V25.875C30.375 25.7258 30.3157 25.5827 30.2102 25.4773C30.1048 25.3718 29.9617 25.3125 29.8125 25.3125H25.3125C25.1633 25.3125 25.0202 25.3718 24.9148 25.4773C24.8093 25.5827 24.75 25.7258 24.75 25.875V28.125C24.75 28.2742 24.8093 28.4173 24.9148 28.5227C25.0202 28.6282 25.1633 28.6875 25.3125 28.6875ZM25.875 26.4375H29.25V27.5625H25.875V26.4375Z" fill="#0E5103"/>
<path d="M17.9998 1.125C15.0398 1.12521 12.1318 1.90402 9.56791 3.38326C7.00399 4.8625 4.87427 6.99014 3.39251 9.55261C1.91076 12.1151 1.12909 15.0222 1.12599 17.9823C1.12288 20.9423 1.89843 23.8511 3.3748 26.4167V34.875C3.3748 35.0242 3.43406 35.1673 3.53955 35.2727C3.64504 35.3782 3.78812 35.4375 3.9373 35.4375H32.0623C32.2115 35.4375 32.3546 35.3782 32.46 35.2727C32.5655 35.1673 32.6248 35.0242 32.6248 34.875V26.4167C34.1012 23.8511 34.8767 20.9423 34.8736 17.9823C34.8705 15.0222 34.0888 12.1151 32.6071 9.55261C31.1253 6.99014 28.9956 4.8625 26.4317 3.38326C23.8678 1.90402 20.9598 1.12521 17.9998 1.125ZM31.5673 10.0125L29.2796 11.1656L25.0479 8.52187C24.9801 8.47949 24.9041 8.45205 24.8248 8.44138C24.7456 8.43071 24.665 8.43706 24.5884 8.46L19.0686 10.1171L14.1861 9.67331L15.5867 8.27269C15.6485 8.21092 15.695 8.1356 15.7227 8.05271C15.7503 7.96981 15.7582 7.88162 15.7459 7.79513L15.2132 4.07812L16.4383 2.32819C16.9572 2.27627 17.4783 2.25018 17.9998 2.25C20.7412 2.25164 23.4347 2.96857 25.8141 4.32995C28.1936 5.69133 30.1766 7.65003 31.5673 10.0125ZM10.3239 4.25419L10.1417 7.55269L6.09168 10.0839L4.6123 9.71325C6.02527 7.44095 7.99009 5.56301 10.3239 4.25419ZM9.5623 16.3125H7.3123V15.1875H9.5623V16.3125ZM10.6873 17.4375V19.6875H6.1873V17.4375H10.6873ZM12.9373 20.8125V23.625C12.7881 23.625 12.645 23.6843 12.5396 23.7898C12.4341 23.8952 12.3748 24.0383 12.3748 24.1875V34.3125H11.2498V32.625C11.2498 31.8791 10.9535 31.1637 10.426 30.6363C9.89859 30.1088 9.18322 29.8125 8.4373 29.8125C7.69138 29.8125 6.97601 30.1088 6.44856 30.6363C5.92112 31.1637 5.6248 31.8791 5.6248 32.625V34.3125H4.4998V20.8125H12.9373ZM10.1248 34.3125H6.7498V32.625C6.7498 32.1774 6.92759 31.7482 7.24406 31.4318C7.56053 31.1153 7.98975 30.9375 8.4373 30.9375C8.88485 30.9375 9.31408 31.1153 9.63054 31.4318C9.94701 31.7482 10.1248 32.1774 10.1248 32.625V34.3125ZM19.6873 34.3125H16.3123V30.9375H19.6873V34.3125ZM22.4998 34.3125H20.8123V30.375C20.8123 30.2258 20.753 30.0827 20.6475 29.9773C20.5421 29.8718 20.399 29.8125 20.2498 29.8125H15.7498C15.6006 29.8125 15.4575 29.8718 15.3521 29.9773C15.2466 30.0827 15.1873 30.2258 15.1873 30.375V34.3125H13.4998V24.75H22.4998V34.3125ZM16.3123 22.5H19.6873V23.625H16.3123V22.5ZM17.2224 21.375L17.9998 19.8202L18.7772 21.375H17.2224ZM29.2498 34.3125H25.8748V31.5C25.8748 31.3508 25.9341 31.2077 26.0396 31.1023C26.145 30.9968 26.2881 30.9375 26.4373 30.9375H28.6873C28.8365 30.9375 28.9796 30.9968 29.085 31.1023C29.1905 31.2077 29.2498 31.3508 29.2498 31.5V34.3125ZM31.4998 34.3125H30.3748V31.5C30.3748 31.0524 30.197 30.6232 29.8805 30.3068C29.5641 29.9903 29.1349 29.8125 28.6873 29.8125H26.4373C25.9897 29.8125 25.5605 29.9903 25.2441 30.3068C24.9276 30.6232 24.7498 31.0524 24.7498 31.5V34.3125H23.6248V24.1875C23.6248 24.0383 23.5655 23.8952 23.46 23.7898C23.3546 23.6843 23.2115 23.625 23.0623 23.625V15.1875H31.4998V34.3125ZM32.6248 23.8365V14.625C32.6248 14.4758 32.5655 14.3327 32.46 14.2273C32.3546 14.1218 32.2115 14.0625 32.0623 14.0625H22.4998C22.3506 14.0625 22.2075 14.1218 22.1021 14.2273C21.9966 14.3327 21.9373 14.4758 21.9373 14.625V23.625H20.8123V21.9375C20.8123 21.7883 20.753 21.6452 20.6475 21.5398C20.5421 21.4343 20.399 21.375 20.2498 21.375H20.0349L18.5061 18.3111C18.4541 18.2239 18.3804 18.1517 18.2921 18.1016C18.2039 18.0514 18.1041 18.0251 18.0026 18.0251C17.9011 18.0251 17.8014 18.0514 17.7131 18.1016C17.6249 18.1517 17.5512 18.2239 17.4992 18.3111L15.9647 21.375H15.7498C15.6006 21.375 15.4575 21.4343 15.3521 21.5398C15.2466 21.6452 15.1873 21.7883 15.1873 21.9375V23.625H14.0623V20.25C14.0623 20.1008 14.003 19.9577 13.8975 19.8523C13.7921 19.7468 13.649 19.6875 13.4998 19.6875H11.8123V16.875C11.8123 16.7258 11.753 16.5827 11.6475 16.4773C11.5421 16.3718 11.399 16.3125 11.2498 16.3125H10.6873V14.625C10.6873 14.4758 10.628 14.3327 10.5225 14.2273C10.4171 14.1218 10.274 14.0625 10.1248 14.0625H6.7498C6.60062 14.0625 6.45754 14.1218 6.35205 14.2273C6.24656 14.3327 6.1873 14.4758 6.1873 14.625V16.3125H5.6248C5.47562 16.3125 5.33254 16.3718 5.22705 16.4773C5.12156 16.5827 5.0623 16.7258 5.0623 16.875V19.6875H3.9373C3.78812 19.6875 3.64504 19.7468 3.53955 19.8523C3.43406 19.9577 3.3748 20.1008 3.3748 20.25V23.8365C2.53296 21.7335 2.15615 19.4733 2.27023 17.211C2.38432 14.9487 2.9866 12.7378 4.03574 10.7303L6.05061 11.2365C6.12398 11.2549 6.2003 11.2583 6.27501 11.2465C6.34972 11.2347 6.42129 11.208 6.48543 11.1679L10.9854 8.35538C11.0625 8.30736 11.1268 8.24141 11.1728 8.16314C11.2189 8.08487 11.2453 7.99663 11.2498 7.90594L11.4838 3.6675C12.5779 3.1667 13.7263 2.7941 14.9061 2.55712L14.1641 3.61519C14.0821 3.73217 14.0478 3.87596 14.0679 4.01737L14.5905 7.67362L12.5396 9.72506C12.4645 9.80071 12.4125 9.89612 12.3896 10.0002C12.3666 10.1043 12.3737 10.2127 12.41 10.3129C12.4463 10.4131 12.5104 10.5009 12.5946 10.5662C12.6789 10.6314 12.78 10.6713 12.8861 10.6813L19.0736 11.2438C19.1452 11.2509 19.2175 11.2437 19.2862 11.2224L24.6677 9.60806L28.9517 12.2856C29.0336 12.3369 29.1274 12.3662 29.2239 12.3707C29.3205 12.3753 29.4166 12.3549 29.5029 12.3114L32.1056 11.0002C33.0921 12.9823 33.6484 15.1506 33.7379 17.3629C33.8273 19.5751 33.448 21.7812 32.6248 23.8365Z" fill="#0E5103"/>
</svg>
