<svg width="140" height="140" viewBox="0 0 140 140" fill="none" xmlns="http://www.w3.org/2000/svg">
<g clip-path="url(#clip0_1_91)">
<path d="M140 108.691C132.796 108.691 129.075 115.717 122.5 115.717C116.598 115.717 112.995 110.057 107.109 108.898M102.891 108.898C97.0047 110.057 93.4021 115.718 87.5 115.718C80.9246 115.718 77.2043 108.691 70 108.691C62.7957 108.691 59.0754 115.718 52.5 115.718C45.9249 115.718 42.2045 108.691 35 108.691C27.7957 108.691 24.0754 115.718 17.5 115.718C10.9249 115.718 7.20426 108.691 0 108.691" stroke="#E0FBDC" stroke-width="4.10159" stroke-miterlimit="22.9256"/>
<path d="M116.751 113.959C123.113 110.285 128.609 104.708 131.797 91.9572L135.898 75.5513H96.9341L92.8326 83.7544H8.20312V91.9575L24.36 113.286" stroke="#E0FBDC" stroke-width="4.10159" stroke-miterlimit="22.9256"/>
<path d="M129.746 75.5515V67.3481H64.1217V83.7544M122.412 67.3481V50.9419H73.1935V67.3481M80.5279 67.3481V83.7544M97.8026 50.9419V34.5359M106.006 50.9419V67.3481M89.5997 50.9419V67.3481M113.34 67.3481V75.5512M96.9342 67.3481V75.5512M16.6406 67.3478L18.6914 50.9419H45.3513V67.3478M28.9453 50.9419V38.6374H41.2497M41.2497 22.2312V50.9419M33.0468 26.3328V38.6374" stroke="#E0FBDC" stroke-width="4.10159" stroke-miterlimit="22.9256"/>
<path d="M114.209 50.9421L114.209 34.5359H81.3963V40.688M81.3963 44.7898V50.9421M55.6049 67.3478H6.15234M12.3047 67.3478V83.7544M49.4528 83.7544V67.3478M33.0468 59.145H37.1484M24.8434 59.145H28.945M8.20312 91.9575H131.797M122.905 83.7544H127.007M114.702 83.7544H118.803" stroke="#E0FBDC" stroke-width="4.10159" stroke-miterlimit="22.9256"/>
</g>
<defs>
<clipPath id="clip0_1_91">
<rect width="140" height="140" fill="white"/>
</clipPath>
</defs>
</svg>
