<svg width="140" height="140" viewBox="0 0 140 140" fill="none" xmlns="http://www.w3.org/2000/svg">
<path d="M128.972 9.55936C128.8 9.32867 128.569 9.14757 128.304 9.03428C128.039 8.92099 127.749 8.87952 127.463 8.91405C122.451 9.51834 116.75 11.7715 111.825 15.0883C106.493 18.6812 102.449 23.2504 100.434 27.9562C98.402 32.7058 98.2872 37.8137 99.3207 42.7109C96.4928 39.7048 93.3378 37.0239 89.9145 34.7183C87.6778 29.4219 84.6563 24.3879 81.1481 20.1305C80.5711 19.4305 79.5375 19.332 78.8375 19.909C78.6712 20.0461 78.5335 20.2146 78.4324 20.405C78.3312 20.5953 78.2686 20.8038 78.248 21.0183C78.2274 21.2329 78.2493 21.4495 78.3125 21.6556C78.3757 21.8617 78.4788 22.0533 78.6161 22.2195C81.4051 25.6047 83.8743 29.5148 85.8457 33.6574L67.2082 30.4035L51.9723 7.8285C53.0223 7.88866 54.0723 7.98436 55.1223 8.12655C61.4852 8.97967 67.4653 11.7523 72.8903 16.368C73.5793 16.9558 74.6157 16.8711 75.2036 16.182C75.7915 15.493 75.7067 14.4566 75.0176 13.8687C69.1059 8.83749 62.5598 5.81327 55.5598 4.87264C39.5582 2.72889 23.5321 9.27772 13.7321 21.9598C13.5557 22.1883 13.4426 22.4592 13.4042 22.7453C13.3658 23.0314 13.4034 23.3225 13.5133 23.5894C16.8493 31.6777 22.6844 40.4195 30.7481 46.4871C26.1789 50.3207 22.3754 55.084 19.6793 60.3832C17.2375 65.182 15.7254 70.2762 15.1512 75.5781C15.1457 75.6164 15.143 75.6574 15.1403 75.6957C15.0938 76.1496 15.0528 76.6062 15.0172 77.0629L14.9762 77.6152C14.9653 77.7848 14.9571 77.957 14.9489 78.1293C14.9352 78.3726 14.927 78.6187 14.9161 78.8621C14.9106 78.9988 14.9051 79.1355 14.9024 79.2723C14.8814 80.0168 14.8805 80.7617 14.8997 81.5062C14.9024 81.6101 14.9079 81.7168 14.9106 81.8207C14.9188 82.075 14.927 82.3293 14.9407 82.5836C14.9461 82.6957 14.9516 82.8078 14.9598 82.9199C14.9735 83.1742 14.9899 83.4285 15.009 83.6828C15.0172 83.7812 15.0227 83.8797 15.0309 83.9781C15.0528 84.2625 15.0801 84.5469 15.1075 84.8312C15.1129 84.8941 15.1184 84.957 15.1266 85.0199C15.4985 88.6238 16.3051 92.1566 17.5438 95.5664C17.5575 95.6019 17.5739 95.632 17.5875 95.6648C23.811 112.596 40.0969 124.709 59.161 124.709C78.225 124.709 94.511 112.599 100.734 95.6676C100.748 95.6348 100.767 95.6019 100.778 95.5691C102.02 92.1594 102.826 88.6265 103.198 85.0199C103.204 84.9597 103.209 84.8969 103.217 84.8367C103.245 84.5523 103.272 84.2652 103.294 83.9809C103.302 83.8824 103.31 83.7867 103.316 83.6883C103.335 83.434 103.351 83.1797 103.365 82.9226C103.37 82.8105 103.379 82.6984 103.384 82.5863C103.395 82.332 103.406 82.0777 103.414 81.8207C103.417 81.7168 103.422 81.6101 103.425 81.5062C103.433 81.1508 103.439 80.7953 103.439 80.4371C103.439 79.9914 103.431 79.5484 103.417 79.1027L103.409 78.8402C103.245 74.1973 102.364 69.6527 100.784 65.3051C100.77 65.2668 100.751 65.2312 100.734 65.1957C99.8375 62.7484 98.7301 60.3777 97.4094 58.1164C93.975 52.243 89.2063 47.2226 83.5407 43.4793C85.4869 41.8151 87.2881 39.9883 88.9247 38.0187C102.763 47.7367 110.98 63.4812 110.98 80.4371C110.98 109.006 87.7379 132.251 59.1665 132.251C31.1418 132.251 8.39731 110.327 7.38832 82.3375C7.35551 81.4324 6.59536 80.7297 5.69028 80.757C5.25555 80.7727 4.84484 80.9604 4.54846 81.2788C4.25208 81.5972 4.0943 82.0203 4.10981 82.4551C4.62387 96.7449 10.5821 110.097 20.8797 120.053C31.2047 130.033 44.8028 135.529 59.1665 135.529C89.5454 135.529 114.261 110.813 114.261 80.4344C114.261 72.8273 112.703 65.45 109.799 58.6851C119.038 57.173 129.754 52.243 133.913 42.5223C138.338 32.1617 134.797 17.3469 128.972 9.55936ZM73.1829 50.1402C75.4387 54.1297 77.1997 58.9367 78.3809 64.225H60.8016V53.8289C64.5504 53.282 68.2282 52.2648 71.7364 50.7855C72.2231 50.5777 72.7043 50.3617 73.1829 50.1402ZM100.127 79.0234C100.13 79.0699 100.13 79.1191 100.133 79.1656C100.147 79.5867 100.155 80.0105 100.155 80.4316C100.155 80.7543 100.149 81.0769 100.144 81.3969L100.136 81.6676C100.127 81.9109 100.119 82.1516 100.108 82.3922C100.106 82.4797 100.1 82.5672 100.095 82.6519C100.078 82.9363 100.062 83.2234 100.04 83.5078C100.037 83.5379 100.037 83.5707 100.034 83.6008C99.7747 86.9832 99.0993 90.2535 98.0657 93.3597H82.3676C83.0457 89.2226 83.4012 84.875 83.4012 80.4289C83.4012 75.9965 83.043 71.6461 82.3594 67.498H98.0438C99.2715 71.1894 99.9879 75.064 100.127 79.0234ZM80.1145 80.4344C80.1145 84.8996 79.7399 89.2473 79.0317 93.3652H60.7989V67.5062H79.0262C79.7399 71.6269 80.1145 75.9828 80.1145 80.4344ZM18.293 83.6062L18.2848 83.5078C18.2629 83.2262 18.2465 82.9418 18.2301 82.6601C18.2247 82.5726 18.2219 82.4851 18.2165 82.3976C18.2055 82.157 18.1973 81.9164 18.1891 81.673L18.1809 81.4023C18.1644 80.7243 18.1663 80.0459 18.1864 79.368L18.1946 79.059C18.2028 78.7773 18.2164 78.4984 18.2301 78.2168C18.2356 78.132 18.2383 78.0445 18.2438 77.9597C18.2629 77.648 18.2848 77.3336 18.3122 77.0219C18.3258 76.8469 18.3422 76.6691 18.3586 76.4941L18.3997 76.084C18.7086 73.1609 19.3266 70.2898 20.2508 67.5035H35.9653C35.2844 71.6461 34.9262 75.9937 34.9262 80.4344C34.9262 84.8805 35.2789 89.2254 35.9598 93.3652H20.2618C19.2081 90.2052 18.5469 86.9276 18.293 83.6062ZM38.2075 80.4344C38.2075 75.9773 38.5821 71.6269 39.293 67.5035H57.5231V93.3625H39.2903C38.5821 89.2473 38.2075 84.8969 38.2075 80.4344ZM57.5204 96.6437V121.294C52.7243 120.548 48.1989 116.536 44.6332 109.81C42.6016 105.976 41.0184 101.508 39.9329 96.6437H57.5204ZM60.8016 121.294V96.6437H78.3891C77.3008 101.508 75.7204 105.976 73.6887 109.81C70.1231 116.536 65.5977 120.548 60.8016 121.294ZM57.5204 64.2223H39.9383C40.8516 60.1398 42.1094 56.3336 43.6899 52.9512C45.1911 53.364 46.736 53.6812 48.3274 53.8945C50.3207 54.1625 52.3223 54.2937 54.3211 54.2937C55.3903 54.2937 56.4567 54.2527 57.5176 54.1789V64.2223H57.5204ZM30.595 42.1668L46.2875 30.0863L62.229 32.8699L41.2536 48.691C37.3106 47.1379 33.7504 44.8738 30.595 42.1668ZM46.8262 26.8488L35.5086 10.1555C39.4926 8.75272 43.6981 7.94334 47.9801 7.78749L62.7184 29.6215L46.8262 26.8488ZM32.386 11.3969L42.3309 26.0613L18.1016 21.834C22.0938 17.3305 26.9856 13.7976 32.386 11.3969ZM17.7817 25.1098L41.9043 29.3207L28.1532 39.9055C23.7317 35.4949 20.2454 30.2504 17.7817 25.1098ZM33.5508 48.4258C35.7411 49.8148 38.0762 51.0015 40.5536 51.934C38.861 55.6336 37.5239 59.7816 36.5805 64.2223H21.4731C24.0872 58.1328 28.1887 52.7133 33.5508 48.4258ZM21.5141 96.6437H36.575C37.7289 102.077 39.468 107.07 41.7348 111.346C43.5969 114.857 45.727 117.729 48.0512 119.894C36.1157 116.528 26.3704 107.879 21.5141 96.6437ZM70.2707 119.894C72.595 117.729 74.725 114.86 76.5872 111.346C78.854 107.07 80.593 102.077 81.7469 96.6437H96.8079C91.9516 107.879 82.2063 116.528 70.2707 119.894ZM96.7805 64.2223H81.736C80.4946 58.3898 78.586 53.066 76.1086 48.6445C77.7411 47.7367 79.3133 46.7305 80.82 45.6285C87.9868 50.1019 93.5075 56.6508 96.7805 64.2223ZM48.7676 50.6433C47.5043 50.4738 46.2711 50.2305 45.068 49.9215L66.6559 33.6383L85.5231 36.9305C76.3684 47.2691 62.5352 52.4918 48.7676 50.6433ZM127.966 14.0219C130.539 18.5308 132.319 24.5875 132.573 30.4473L118.811 35.6644L127.966 14.0219ZM124.961 12.7094L115.732 34.5242L109.457 21.0957C113.925 16.9805 119.752 13.9808 124.961 12.7094ZM103.45 29.2469C104.306 27.248 105.533 25.364 107.018 23.6223L114.015 38.5902L107.54 53.9027C103.206 47.0668 99.9852 37.3406 103.45 29.2469ZM110.545 55.2152L117.048 39.8453L132.538 33.9719C132.357 36.5586 131.832 39.0332 130.895 41.2289C127.436 49.3035 118.579 53.632 110.545 55.2152Z" fill="#E0FBDC"/>
</svg>
