<svg width="140" height="140" viewBox="0 0 140 140" fill="none" xmlns="http://www.w3.org/2000/svg">
<path d="M39.2383 89.2102C38.6944 89.2102 38.1728 89.4263 37.7882 89.8109C37.4036 90.1955 37.1875 90.7171 37.1875 91.261V94.9524C37.1875 95.4963 37.4036 96.0179 37.7882 96.4025C38.1728 96.7871 38.6944 97.0032 39.2383 97.0032C39.7822 97.0032 40.3038 96.7871 40.6884 96.4025C41.073 96.0179 41.2891 95.4963 41.2891 94.9524V91.261C41.2891 90.7171 41.073 90.1955 40.6884 89.8109C40.3038 89.4263 39.7822 89.2102 39.2383 89.2102Z" fill="#E0FBDC"/>
<path d="M133.523 116.156H130.202V59.2564C135.703 58.2829 139.894 53.4718 139.894 47.6965V39.8007C139.894 39.7605 139.891 39.7212 139.888 39.6815C139.887 39.6594 139.887 39.6372 139.885 39.6151C139.878 39.5351 139.866 39.4556 139.85 39.3769C139.849 39.3723 139.848 39.3679 139.847 39.3635C139.83 39.2895 139.81 39.2165 139.785 39.1448C139.779 39.1267 139.772 39.1087 139.766 39.0909C139.743 39.03 139.718 38.9702 139.69 38.9118C139.684 38.9011 139.681 38.8899 139.676 38.8795L130.608 20.8466V11.4146C130.608 8.98051 128.628 7 126.194 7H32.9372C32.3933 7 31.8717 7.21606 31.4871 7.60066C31.1025 7.98526 30.8864 8.50688 30.8864 9.05078C30.8864 9.59468 31.1025 10.1163 31.4871 10.5009C31.8717 10.8855 32.3933 11.1016 32.9372 11.1016H126.194C126.366 11.1016 126.507 11.2421 126.507 11.4146V19.3017H13.4933V11.4146C13.4933 11.2421 13.6339 11.1016 13.8064 11.1016H23.3953C23.9392 11.1016 24.4608 10.8855 24.8454 10.5009C25.23 10.1163 25.4461 9.59468 25.4461 9.05078C25.4461 8.50688 25.23 7.98526 24.8454 7.60066C24.4608 7.21606 23.9392 7 23.3953 7H13.8064C11.3723 7 9.39176 8.98051 9.39176 11.4146V20.8466L0.324297 38.8795C0.319102 38.8902 0.315547 38.9014 0.310625 38.9118C0.282443 38.9702 0.257075 39.03 0.234609 39.0909C0.228047 39.1089 0.220938 39.1267 0.214922 39.1448C0.190419 39.2165 0.16997 39.2895 0.153672 39.3635L0.150117 39.3769C0.133711 39.4548 0.122227 39.5341 0.115117 39.6151C0.113203 39.6372 0.113203 39.6594 0.111836 39.6815C0.109648 39.7212 0.10582 39.7605 0.10582 39.8007V47.6965C0.10582 53.4715 4.29762 58.2829 9.79781 59.2564V116.156H6.47719C2.90555 116.156 0 119.062 0 122.633V129.12C0 130.942 1.48285 132.425 3.30559 132.425H136.694C138.517 132.425 140 130.942 140 129.12V122.633C140 119.062 137.094 116.156 133.523 116.156ZM135.793 47.6968C135.793 51.9102 132.365 55.338 128.151 55.338C123.938 55.338 120.51 51.9102 120.51 47.6968V41.8518H135.793V47.6968ZM127.303 23.4032L134.517 37.75H119.902L114.749 23.4032H127.303ZM110.391 23.4032L115.544 37.75H100.732L97.6399 23.4032H110.391ZM116.409 41.8515V47.6965C116.409 51.9099 112.981 55.3377 108.768 55.3377C104.554 55.3377 101.126 51.9099 101.126 47.6965V41.8515H116.409ZM93.4443 23.4032L96.536 37.75H81.6009L80.5703 23.4032H93.4443ZM97.0249 41.8515V47.6965C97.0249 51.9099 93.5971 55.3377 89.384 55.3377C85.1709 55.3377 81.7428 51.9099 81.7428 47.6965V41.8515H97.0249ZM63.542 23.4032H76.4578L77.4884 37.75H62.5114L63.542 23.4032ZM62.3588 41.8515H77.6412V47.6965C77.6412 51.9099 74.2134 55.3377 70 55.3377C65.7866 55.3377 62.3588 51.9099 62.3588 47.6965V41.8515ZM70 59.4393C74.0206 59.4393 77.5745 57.4074 79.692 54.3173C81.8095 57.4074 85.3634 59.4393 89.384 59.4393C93.4046 59.4393 96.9585 57.4074 99.0757 54.3173C101.193 57.4074 104.747 59.4393 108.768 59.4393C112.788 59.4393 116.342 57.4074 118.46 54.3173C120.209 56.8695 122.938 58.6966 126.101 59.2564V116.156H48.9005V70.5835C48.9005 68.4802 47.1893 66.7691 45.086 66.7691H21.3765C19.2732 66.7691 17.5621 68.4802 17.5621 70.5835V116.156H13.8994V59.2564C17.062 58.6966 19.7917 56.8695 21.5406 54.3173C23.6581 57.4074 27.212 59.4393 31.2326 59.4393C35.2532 59.4393 38.8071 57.4074 40.9246 54.3173C43.0421 57.4074 46.5959 59.4393 50.6163 59.4393C54.6366 59.4393 58.1908 57.4074 60.3083 54.3173C62.4255 57.4074 65.9794 59.4393 70 59.4393ZM44.7989 70.8706V116.156H21.6636V70.8706H44.7989ZM23.5911 47.6968V41.8518H38.8735V47.6968C38.8735 51.9102 35.4457 55.338 31.2323 55.338C27.0189 55.338 23.5911 51.9099 23.5911 47.6968ZM46.5557 23.4032H59.4297L58.3991 37.75H43.464L46.5557 23.4032ZM42.9751 41.8515H58.2572V47.6965C58.2572 51.9099 54.8294 55.3377 50.616 55.3377C46.4026 55.3377 42.9751 51.9099 42.9751 47.6965V41.8515ZM42.3598 23.4032L39.2681 37.75H24.456L29.6086 23.4032H42.3598ZM12.6971 23.4032H25.2506L20.0979 37.75H5.48324L12.6971 23.4032ZM4.20738 47.6968V41.8518H19.4898V47.6968C19.4898 51.9102 16.062 55.338 11.8486 55.338C7.6352 55.338 4.20738 51.9099 4.20738 47.6968ZM4.10156 128.324V122.633C4.10156 121.323 5.16715 120.257 6.47719 120.257H133.523C134.833 120.257 135.898 121.323 135.898 122.633V128.324H4.10156Z" fill="#E0FBDC"/>
<path d="M116.696 67.0564H91.618C91.0741 67.0564 90.5524 67.2725 90.1679 67.6571C89.7833 68.0417 89.5672 68.5633 89.5672 69.1072C89.5672 69.6511 89.7833 70.1727 90.1679 70.5573C90.5524 70.9419 91.0741 71.158 91.618 71.158H116.409V103.433H57.2852V71.158H81.9629C82.5068 71.158 83.0284 70.9419 83.413 70.5573C83.7976 70.1727 84.0137 69.6511 84.0137 69.1072C84.0137 68.5633 83.7976 68.0417 83.413 67.6571C83.0284 67.2725 82.5068 67.0564 81.9629 67.0564H56.998C54.8948 67.0564 53.1836 68.7673 53.1836 70.8708V103.721C53.1836 105.824 54.8948 107.535 56.998 107.535H116.696C118.799 107.535 120.51 105.824 120.51 103.721V70.8708C120.51 68.7676 118.799 67.0564 116.696 67.0564Z" fill="#E0FBDC"/>
</svg>
