<svg width="140" height="140" viewBox="0 0 140 140" fill="none" xmlns="http://www.w3.org/2000/svg">
<path d="M67.8125 67.8126C68.3249 67.8129 68.8211 67.6333 69.2147 67.3051L78.6603 59.4301C84.1726 54.8482 88.6068 49.1072 91.6471 42.616C94.6874 36.1248 96.259 29.043 96.25 21.8751C96.25 21.2949 96.0195 20.7385 95.6093 20.3283C95.199 19.9181 94.6426 19.6876 94.0625 19.6876H92.75C84.184 19.6754 75.8751 16.7597 69.1797 11.4167C68.7917 11.106 68.3095 10.9368 67.8125 10.9368C67.3155 10.9368 66.8333 11.106 66.4453 11.4167C59.7499 16.7597 51.441 19.6754 42.875 19.6876H41.5625C40.9823 19.6876 40.4259 19.9181 40.0157 20.3283C39.6054 20.7385 39.375 21.2949 39.375 21.8751C39.3655 29.0431 40.9369 36.125 43.9772 42.6163C47.0176 49.1076 51.452 54.8485 56.9647 59.4301L66.4103 67.3051C66.8038 67.6333 67.3001 67.8129 67.8125 67.8126ZM43.8025 24.0626C52.4545 23.857 60.835 21.0014 67.8125 15.8813C74.7903 21.0007 83.1706 23.8563 91.8225 24.0626C91.5291 30.2157 89.9578 36.2402 87.2085 41.7527C84.4592 47.2652 80.5922 52.1449 75.8537 56.081L67.8125 62.7813L59.7647 56.0767C55.0278 52.1405 51.1623 47.2613 48.4142 41.7496C45.6661 36.2379 44.0955 30.2144 43.8025 24.0626Z" fill="#E0FBDC"/>
<path d="M69.2344 56.3478L76.0791 50.4831C81.928 45.4536 85.9312 38.616 87.4541 31.0538C87.5175 30.7367 87.5098 30.4095 87.4315 30.0958C87.3533 29.7821 87.2065 29.4896 87.0017 29.2394C86.7969 28.9892 86.5392 28.7875 86.2471 28.6489C85.955 28.5102 85.6358 28.438 85.3125 28.4375C80.1079 28.4267 75.0452 26.7391 70.875 23.625L69.125 22.3125C68.7464 22.0285 68.2858 21.875 67.8125 21.875C67.3392 21.875 66.8787 22.0285 66.5 22.3125L64.75 23.625C60.5794 26.7384 55.517 28.4259 50.3125 28.4375C49.9881 28.4374 49.6677 28.5095 49.3746 28.6486C49.0815 28.7876 48.823 28.9901 48.6178 29.2413C48.4126 29.4926 48.2658 29.7864 48.1882 30.1013C48.1105 30.4163 48.1039 30.7446 48.1688 31.0625C49.6917 38.6247 53.6948 45.4624 59.5438 50.4919L66.3885 56.3566C66.7847 56.6955 67.2889 56.8817 67.8103 56.8817C68.3317 56.8817 68.836 56.6955 69.2322 56.3566L69.2344 56.3478ZM62.3897 47.1603C57.9451 43.3371 54.7063 38.3056 53.0666 32.6769C58.252 32.161 63.1987 30.2416 67.375 27.125L67.8125 26.7969L68.25 27.125C72.426 30.2422 77.3729 32.1617 82.5585 32.6769C80.9188 38.3056 77.6799 43.3371 73.2353 47.1603L67.8125 51.8066L62.3897 47.1603Z" fill="#E0FBDC"/>
<path d="M135.625 76.5625H115.938V4.375C115.938 3.79484 115.707 3.23844 115.297 2.8282C114.887 2.41797 114.33 2.1875 113.75 2.1875H21.875C21.2948 2.1875 20.7384 2.41797 20.3282 2.8282C19.918 3.23844 19.6875 3.79484 19.6875 4.375V59.0625H4.375C3.79484 59.0625 3.23844 59.293 2.8282 59.7032C2.41797 60.1134 2.1875 60.6698 2.1875 61.25V126.875C2.19097 129.775 3.34443 132.555 5.39486 134.605C7.44528 136.656 10.2253 137.809 13.125 137.812H105C107.9 137.809 110.68 136.656 112.73 134.605C114.781 132.555 115.934 129.775 115.938 126.875V120.312H135.625C136.205 120.312 136.762 120.082 137.172 119.672C137.582 119.262 137.812 118.705 137.812 118.125V78.75C137.812 78.1698 137.582 77.6134 137.172 77.2032C136.762 76.793 136.205 76.5625 135.625 76.5625ZM6.5625 126.875V63.4375H19.6875V126.875C19.6875 128.615 18.9961 130.285 17.7654 131.515C16.5347 132.746 14.8655 133.438 13.125 133.438C11.3845 133.438 9.71532 132.746 8.48461 131.515C7.2539 130.285 6.5625 128.615 6.5625 126.875ZM111.562 126.875C111.562 128.615 110.871 130.285 109.64 131.515C108.41 132.746 106.74 133.438 105 133.438H21.8181C23.2658 131.555 24.0545 129.249 24.0625 126.875V6.5625H111.562V76.5625H109.375C108.795 76.5625 108.238 76.793 107.828 77.2032C107.418 77.6134 107.188 78.1698 107.188 78.75V80.9375H101.531L94.0625 73.4694V61.25C94.0625 60.6698 93.832 60.1134 93.4218 59.7032C93.0116 59.293 92.4552 59.0625 91.875 59.0625H89.6875C87.3669 59.0625 85.1413 59.9844 83.5003 61.6253C81.8594 63.2663 80.9375 65.4919 80.9375 67.8125V80.9375H65.625C63.8845 80.9375 62.2153 81.6289 60.9846 82.8596C59.7539 84.0903 59.0625 85.7595 59.0625 87.5V113.75C59.0625 115.49 59.7539 117.16 60.9846 118.39C62.2153 119.621 63.8845 120.312 65.625 120.312H91.875C92.2135 120.316 92.5482 120.241 92.8528 120.094L101.141 115.938H107.188V118.125C107.188 118.705 107.418 119.262 107.828 119.672C108.238 120.082 108.795 120.312 109.375 120.312H111.562V126.875ZM107.188 111.562H100.625C100.287 111.559 99.9518 111.634 99.6472 111.781L91.3587 115.938H65.625C65.0448 115.938 64.4884 115.707 64.0782 115.297C63.668 114.887 63.4375 114.33 63.4375 113.75V111.562H80.9375V107.188H63.4375V102.812H80.9375V98.4375H63.4375V94.0625H80.9375V89.6875H63.4375V87.5C63.4375 86.9198 63.668 86.3634 64.0782 85.9532C64.4884 85.543 65.0448 85.3125 65.625 85.3125H83.125C83.7052 85.3125 84.2616 85.082 84.6718 84.6718C85.082 84.2616 85.3125 83.7052 85.3125 83.125V67.8125C85.3125 66.6522 85.7734 65.5394 86.5939 64.7189C87.4144 63.8984 88.5272 63.4375 89.6875 63.4375V74.375C89.6876 74.9551 89.9182 75.5114 90.3284 75.9216L99.0784 84.6716C99.4886 85.0818 100.045 85.3124 100.625 85.3125H107.188V111.562ZM133.438 115.938H111.562V80.9375H133.438V115.938Z" fill="#E0FBDC"/>
<path d="M49.1312 68.0881C48.8239 67.9142 48.4781 67.8195 48.125 67.8124H30.625C30.0448 67.8124 29.4884 68.0429 29.0782 68.4531C28.668 68.8634 28.4375 69.4198 28.4375 69.9999V87.4999C28.4375 88.0801 28.668 88.6365 29.0782 89.0467C29.4884 89.457 30.0448 89.6874 30.625 89.6874H48.125C48.7052 89.6874 49.2616 89.457 49.6718 89.0467C50.082 88.6365 50.3125 88.0801 50.3125 87.4999V73.0931L56.2341 67.1715L53.1409 64.0784L49.1312 68.0881ZM45.9375 85.3124H32.8125V72.1874H45.0319L39.375 77.8443L36.5466 75.0159L33.4534 78.109L37.8284 82.484C38.2387 82.8941 38.795 83.1245 39.375 83.1245C39.955 83.1245 40.5113 82.8941 40.9216 82.484L45.9375 77.4681V85.3124ZM53.1409 90.3284L49.1312 94.3381C48.824 94.164 48.4781 94.0692 48.125 94.0624H30.625C30.0448 94.0624 29.4884 94.2929 29.0782 94.7031C28.668 95.1134 28.4375 95.6698 28.4375 96.2499V113.75C28.4375 114.33 28.668 114.886 29.0782 115.297C29.4884 115.707 30.0448 115.937 30.625 115.937H48.125C48.7052 115.937 49.2616 115.707 49.6718 115.297C50.082 114.886 50.3125 114.33 50.3125 113.75V99.3431L56.2341 93.4215L53.1409 90.3284ZM45.9375 111.562H32.8125V98.4374H45.0319L39.375 104.094L36.5466 101.266L33.4534 104.359L37.8284 108.734C38.2387 109.144 38.795 109.374 39.375 109.374C39.955 109.374 40.5113 109.144 40.9216 108.734L45.9375 103.718V111.562Z" fill="#E0FBDC"/>
</svg>
