<svg width="30" height="30" viewBox="0 0 30 30" fill="none" xmlns="http://www.w3.org/2000/svg">
<g clip-path="url(#clip0_120_718)">
<path d="M1.96617 6.56367C3.05745 9.10184 4.89974 11.6123 7.47772 12.6945C7.77199 12.8171 8.10612 12.909 8.44944 12.9857C9.13609 11.9618 9.92389 11.1311 10.8466 10.4506C11.6405 9.86818 12.4712 9.41144 13.3264 9.05276C13.0812 8.8811 12.8237 8.72476 12.5539 8.58376C11.4811 8.02279 10.3193 7.52927 9.18817 6.99896C10.2519 7.2871 11.4719 7.39439 12.4896 7.7653C13.1241 7.9983 13.7096 8.32017 14.2552 8.70334C15.883 8.14847 17.5843 7.88179 19.2824 7.6795C17.9061 5.39273 14.9695 3.55657 12.7563 2.72586C10.445 1.85832 7.82714 1.75104 5.25529 1.48438C3.67969 1.32188 1.96614 0.733362 0.712406 0.0467182C0.427326 -0.109616 0.123854 0.150941 0.221946 0.466675C0.838117 2.43768 1.15078 4.66927 1.96617 6.56367Z" fill="#FCFCFC"/>
<path d="M29.1407 6.26326C26.2408 7.83887 22.9149 8.03198 19.6564 8.40596C18.0655 8.58988 16.4899 8.81669 14.9909 9.2704C14.666 9.36846 14.3411 9.47884 14.0223 9.60146C13.0751 9.96317 12.1616 10.4383 11.3002 11.0728C10.4909 11.6675 9.82882 12.3726 9.27093 13.1481C8.38197 14.3865 7.76276 15.8119 7.25391 17.2925C6.3251 19.9808 5.89901 22.8377 5.98178 25.6793C6.0155 26.8319 6.03389 28.0305 6.31897 29.1555C6.38334 29.4038 6.44465 29.7195 6.63777 29.9034C6.88913 30.1456 7.33974 29.8973 7.23858 29.5448C6.50902 27.0587 6.9627 24.1528 7.97121 21.7771C9.12992 19.0458 11.3676 17.4212 14.102 16.4311C14.8285 16.1675 15.5703 15.9376 16.3244 15.7199C16.3397 15.7138 16.355 15.7138 16.3703 15.7138C16.5205 15.7138 16.5849 15.9345 16.4286 16.0051C15.5396 16.4066 14.6568 16.8112 13.8168 17.2496C9.70311 19.3954 7.9068 24.3919 9.44869 24.3919C9.5744 24.3919 9.72151 24.3582 9.8901 24.2877C12.2688 23.3037 15.0951 23.2945 17.7099 22.8102C18.6295 22.6416 19.5246 22.4117 20.3645 22.0623C23.6996 20.6706 26.0845 17.9485 27.5037 14.6747C28.5613 12.2316 28.9721 9.34709 29.7721 6.80893C29.8763 6.484 29.6464 6.20508 29.3644 6.20508C29.294 6.20195 29.2174 6.22038 29.1407 6.26326Z" fill="#FCFCFC"/>
</g>
<defs>
<clipPath id="clip0_120_718">
<rect width="30" height="30" fill="white"/>
</clipPath>
</defs>
</svg>
