<svg width="30" height="30" viewBox="0 0 30 30" fill="none" xmlns="http://www.w3.org/2000/svg">
<g clip-path="url(#clip0_120_728)">
<path d="M26.8895 18.632C25.1874 18.737 22.9482 20.4382 20.7879 21.4165C18.1417 22.6137 14.0207 21.6507 14.0203 21.6507C14.6551 21.3531 17.238 20.7378 17.7586 20.5078C20.524 19.2925 20.2908 16.7557 18.9737 16.7771C17.2323 16.8064 16.2121 17.2335 12.7399 17.7069C10.1082 18.0646 6.99583 17.9338 5.50271 18.5038C3.39521 19.309 0 24.7249 0 24.7249L5.24876 29.8098C5.24876 29.8098 8.49746 26.6108 10.0781 26.6108C13.6799 26.6108 13.8261 26.5614 17.1716 26.3807C18.5927 26.3047 18.8907 26.2463 19.7042 25.9705C24.0395 24.506 28.6951 20.602 28.7808 20.1322C28.9798 19.0449 27.7903 18.5761 26.8895 18.632ZM19.6464 10.7623C19.6905 10.7712 19.7362 10.7665 19.7774 10.7487C19.8187 10.7309 19.8536 10.701 19.8773 10.6628C21.0831 8.71974 22.9039 6.3692 25.2781 4.77177C23.0653 6.89688 21.5026 9.13386 20.5554 11.2397C20.5414 11.2709 20.5348 11.3049 20.5363 11.339C20.5377 11.3732 20.5471 11.4065 20.5637 11.4364C20.5803 11.4663 20.6036 11.4919 20.6318 11.5112C20.66 11.5305 20.6923 11.543 20.7261 11.5476C20.8808 11.5686 21.0413 11.5795 21.203 11.5795C22.7194 11.5795 24.2299 10.6554 25.2297 9.88038C26.3717 8.99531 27.4682 7.82583 28.1634 6.75134C29.2062 5.13977 29.8582 3.15361 29.9994 1.1583C30.0017 1.12689 29.9971 1.09537 29.9861 1.06588C29.9751 1.03639 29.9578 1.00961 29.9356 0.987347C29.9133 0.965088 29.8865 0.947873 29.857 0.936866C29.8275 0.925859 29.796 0.921317 29.7646 0.923548C28.2538 1.03051 24.5051 1.51536 22.3129 3.70331C22.2363 3.77243 21.4292 4.51509 20.6786 5.70217C19.6498 7.32989 19.2328 9.01645 19.4732 10.5801C19.4799 10.6246 19.5001 10.6659 19.5311 10.6985C19.5621 10.7311 19.6023 10.7534 19.6464 10.7623ZM13.6509 13.0926C14.604 13.8313 16.0435 14.7118 17.4888 14.7118C17.6429 14.7118 17.7959 14.7018 17.943 14.6813C17.9752 14.6769 18.006 14.665 18.0329 14.6466C18.0597 14.6283 18.0819 14.6039 18.0978 14.5754C18.1136 14.547 18.1225 14.5152 18.124 14.4827C18.1254 14.4502 18.1192 14.4178 18.106 14.3881C17.2033 12.3812 15.714 10.2493 13.6048 8.22388C15.8676 9.74641 17.603 11.9867 18.7521 13.8384C18.7748 13.8747 18.808 13.9033 18.8473 13.9202C18.8867 13.9371 18.9303 13.9416 18.9722 13.9331C19.0142 13.9244 19.0525 13.9032 19.0821 13.8722C19.1116 13.8412 19.131 13.8019 19.1375 13.7595C19.3663 12.2695 18.9692 10.6619 17.9886 9.11088C17.2733 7.97933 16.5036 7.27195 16.4308 7.20581C14.3418 5.1208 10.769 4.65854 9.32908 4.55672C9.29916 4.55445 9.2691 4.55871 9.24097 4.56918C9.21285 4.57966 9.18733 4.59611 9.16618 4.61739C9.14496 4.63863 9.12855 4.66418 9.11805 4.69232C9.10756 4.72045 9.10322 4.7505 9.10534 4.78045C9.24004 6.68199 9.86134 8.57484 10.8551 10.1105C11.5176 11.1346 12.5628 12.2492 13.6509 13.0926ZM15.7105 5.87616C16.3454 6.368 17.3042 6.95459 18.2668 6.95459C18.3693 6.95459 18.4714 6.94759 18.5695 6.93417C18.591 6.93126 18.6116 6.92337 18.6295 6.91113C18.6474 6.89888 18.6622 6.88262 18.6727 6.86363C18.6833 6.84465 18.6892 6.82347 18.6901 6.80178C18.691 6.7801 18.6868 6.7585 18.6779 6.73872C18.0766 5.40184 17.0849 3.9821 15.6801 2.63317C17.1871 3.64706 18.3429 5.13945 19.1085 6.37258C19.1235 6.39679 19.1456 6.4158 19.1718 6.42707C19.198 6.43834 19.2271 6.44131 19.255 6.4356C19.2829 6.42988 19.3085 6.41575 19.3281 6.39511C19.3478 6.37446 19.3607 6.34828 19.3651 6.3201C19.5174 5.32758 19.2529 4.25695 18.5999 3.22377C18.1235 2.47034 17.6108 1.999 17.5625 1.95504C16.1708 0.566243 13.7913 0.258442 12.8323 0.190533C12.8123 0.189059 12.7923 0.191904 12.7735 0.198873C12.7548 0.205843 12.7377 0.216773 12.7236 0.230921C12.7094 0.245068 12.6985 0.2621 12.6915 0.280856C12.6845 0.299612 12.6817 0.319652 12.6831 0.339612C12.7727 1.60625 13.1866 2.86695 13.8485 3.88976C14.2897 4.57191 14.986 5.31416 15.7105 5.87616Z" fill="#FCFCFC"/>
</g>
<defs>
<clipPath id="clip0_120_728">
<rect width="30" height="30" fill="white"/>
</clipPath>
</defs>
</svg>
