<svg width="40" height="41" viewBox="0 0 40 41" fill="none" xmlns="http://www.w3.org/2000/svg">
<g clip-path="url(#clip0_120_797)">
<path d="M10.8863 37.7355C10.8863 37.7355 10.8863 37.7355 10.8863 37.7355V37.7355ZM39.8618 27.2345C39.6857 27.637 39.3644 27.9465 38.957 28.1059L36.6648 29.0027C36.4748 29.0773 36.2726 29.1157 36.0685 29.1159C35.8445 29.1159 35.6208 29.0695 35.409 28.9768C35.1011 28.8429 34.842 28.6171 34.6672 28.3304L32.0599 29.4421C32.1427 29.9478 32.065 30.4809 31.8026 30.9581C31.4935 31.5201 30.9819 31.9266 30.362 32.1027C30.3556 32.1045 30.3492 32.1057 30.3427 32.1074C30.5759 32.7348 30.5478 33.4536 30.2038 34.0791C29.7711 34.8658 28.9554 35.3112 28.1152 35.3112C27.9397 35.3108 27.7649 35.291 27.5938 35.252C27.6153 35.6864 27.5157 36.1182 27.306 36.4992C26.8733 37.2859 26.0576 37.7313 25.2174 37.7313C25.1148 37.7312 25.0124 37.7244 24.9107 37.711C24.9441 38.1666 24.8446 38.622 24.6243 39.0221C24.1917 39.8088 23.376 40.2542 22.5357 40.2542C22.1362 40.2543 21.7431 40.1531 21.3932 39.9602L20.5705 39.5077C20.2676 39.9313 19.8354 40.2427 19.3265 40.3969C19.1008 40.4656 18.8661 40.5006 18.6302 40.5009C18.241 40.5007 17.8578 40.4042 17.515 40.2199C16.9688 39.9278 16.5831 39.4514 16.3931 38.9082C16.2917 38.955 16.1872 38.9948 16.0804 39.0273C15.8547 39.0961 15.6201 39.1311 15.3842 39.1313C14.9986 39.1313 14.6174 39.0368 14.2689 38.8504C13.7746 38.586 13.4122 38.1706 13.2067 37.6915C13.0462 37.7845 12.8755 37.8587 12.6979 37.9125C12.4722 37.9812 12.2376 38.0163 12.0017 38.0165C11.6125 38.0163 11.2293 37.9198 10.8865 37.7355C10.3278 37.4367 9.91838 36.9366 9.73369 36.327C9.62025 35.9528 9.60056 35.5659 9.67111 35.1937C9.62408 35.1965 9.57712 35.1989 9.53025 35.1989C9.14105 35.1987 8.75795 35.1022 8.41509 34.918C7.85642 34.6192 7.44697 34.119 7.26228 33.5095C7.07759 32.9 7.14041 32.2566 7.43923 31.698L8.03963 30.5754C7.88423 30.2291 7.8147 29.8493 7.74705 29.4788C7.62119 28.7888 7.53017 28.4513 7.24025 28.3387C7.02603 28.2556 6.3797 27.9716 5.17033 27.429C4.85642 27.8277 4.37587 28.0557 3.87806 28.0557C3.65002 28.0557 3.41861 28.008 3.19806 27.9072L0.959312 26.8841C0.135953 26.5078 -0.227797 25.5317 0.148453 24.7084L4.74955 14.6408C5.1258 13.8173 6.10197 13.4537 6.92525 13.83L9.164 14.853C9.98736 15.2295 10.3511 16.2055 9.97486 17.0288L9.83556 17.3336L11.8621 18.2685C11.8773 18.2755 11.8922 18.2832 11.9068 18.2913C12.7131 18.7452 13.5495 18.5476 14.6082 18.2974C15.9883 17.9714 17.6872 17.5709 19.6767 18.7452C22.4128 17.0518 24.5138 17.9084 26.066 18.5428C27.1944 19.0041 27.9216 19.2684 28.6233 18.9034L30.5471 17.8737L30.5042 17.764C30.1744 16.9209 30.5919 15.9667 31.4349 15.6368L33.7272 14.7398C34.5704 14.4102 35.5244 14.8277 35.8544 15.6705L35.8545 15.6705L39.8878 25.9786C40.0471 26.386 40.0378 26.832 39.8618 27.2345ZM4.23673 26.5769L8.83775 16.5093C8.92603 16.3161 8.83744 16.0783 8.64416 15.99L6.40548 14.967C6.35874 14.9456 6.30821 14.9337 6.25685 14.9321C6.20548 14.9304 6.1543 14.939 6.10627 14.9573C6.05799 14.9749 6.01369 15.0019 5.97594 15.0368C5.93819 15.0716 5.90773 15.1137 5.88634 15.1604L1.28517 25.228C1.19689 25.4212 1.28548 25.6589 1.47869 25.7472L3.71744 26.7703C3.91072 26.8587 4.14845 26.7699 4.23673 26.5769ZM9.86384 33.8987C10.1525 33.8112 10.3891 33.6185 10.5306 33.356L11.6465 31.27C11.9346 30.7314 11.7231 30.0293 11.1842 29.7423C10.6467 29.4561 9.94572 29.6616 9.65517 30.2048L8.54127 32.2875C8.25251 32.8274 8.46548 33.5276 9.00439 33.8158C9.26877 33.9571 9.57408 33.9865 9.86384 33.8987ZM13.004 36.1702L14.5133 33.3482C14.801 32.8105 14.5893 32.1072 14.0511 31.8205C13.5173 31.5363 12.8165 31.7381 12.5243 32.2791L11.0127 35.105C10.8713 35.3692 10.8418 35.6745 10.9297 35.9645C11.0176 36.2544 11.2115 36.4919 11.4758 36.6333C11.7401 36.7746 12.0452 36.8041 12.3352 36.7162C12.6252 36.6284 12.8628 36.4345 13.004 36.1702ZM16.3865 37.2851L17.607 35.0029C17.8951 34.4641 17.6837 33.7621 17.1448 33.4752C16.6035 33.1869 15.9046 33.3973 15.6156 33.9377L14.3952 36.2198C14.1015 36.7689 14.3093 37.4545 14.8584 37.7481C15.1227 37.8895 15.4278 37.919 15.7178 37.831C16.0077 37.7432 16.2453 37.5493 16.3865 37.2851ZM19.6326 38.6546L20.7006 36.6575C20.986 36.1239 20.7738 35.4149 20.2385 35.1298C19.6972 34.8416 18.9984 35.0518 18.7093 35.5923L17.6411 37.5897C17.3477 38.1387 17.5556 38.8241 18.1045 39.1177C18.3688 39.2591 18.6742 39.2886 18.9639 39.2005C19.2538 39.1127 19.4913 38.9188 19.6326 38.6546ZM23.1699 36.9398L22.0903 36.346C22.0847 36.343 22.0797 36.3393 22.0742 36.3362C22.0464 36.655 21.9541 36.9649 21.8029 37.247L21.1781 38.4155L21.9955 38.865C22.5412 39.1651 23.229 38.9654 23.529 38.4198C23.8117 37.906 23.6483 37.264 23.1699 36.9398ZM30.2538 28.8176L24.1869 25.3596C23.1497 24.7683 21.8592 25.2909 20.3653 25.8957C18.1127 26.8077 15.3091 27.9427 12.9378 24.6749C12.8862 24.6039 12.8502 24.5229 12.8321 24.437C12.814 24.3512 12.8141 24.2625 12.8325 24.1767C12.8509 24.0909 12.8872 24.01 12.9389 23.9391C12.9907 23.8683 13.0568 23.8092 13.1329 23.7655C14.9335 22.7341 16.4467 21.6045 17.6306 20.4081C17.9227 20.1124 18.2288 19.8308 18.5479 19.5645C17.2145 18.9665 16.0825 19.2335 14.8955 19.514C13.7374 19.7875 12.5403 20.0703 11.3166 19.3935L9.3158 18.4705L5.73244 26.3113C6.44712 26.632 7.45048 27.0796 7.69236 27.1735C8.58923 27.5217 8.81213 28.3843 8.94423 29.0799C9.22158 28.7945 9.56853 28.5816 9.96134 28.4626C10.571 28.2779 11.2142 28.3407 11.7729 28.6395C12.3299 28.9362 12.7393 29.4355 12.9245 30.045C12.9689 30.191 12.9994 30.3409 13.0156 30.4927C13.5681 30.372 14.138 30.4494 14.6398 30.7177C15.1968 31.0144 15.6062 31.5137 15.7914 32.1232C15.802 32.1583 15.8117 32.1934 15.8207 32.2287C15.8542 32.217 15.8877 32.2057 15.9219 32.1953C16.5314 32.0106 17.1748 32.0735 17.7335 32.3723C18.2905 32.669 18.6998 33.1683 18.8851 33.7777C18.8958 33.8128 18.9054 33.848 18.9144 33.8833C18.9478 33.8716 18.9814 33.8602 19.0155 33.8499C19.6248 33.6652 20.2682 33.728 20.827 34.0269C21.0954 34.1695 21.3336 34.3629 21.5285 34.5962L24.6771 36.3419C25.2224 36.6417 25.9106 36.4423 26.2107 35.8968C26.5079 35.3566 26.3058 34.6673 25.7602 34.3602L22.0153 32.2525C21.9438 32.2122 21.8809 32.1583 21.8302 32.0937C21.7795 32.0292 21.7421 31.9552 21.72 31.8762C21.6979 31.7971 21.6915 31.7145 21.7013 31.633C21.7112 31.5515 21.7369 31.4728 21.7772 31.4013C21.8175 31.3297 21.8714 31.2668 21.936 31.2161C22.0005 31.1655 22.0745 31.128 22.1535 31.1059C22.2326 31.0838 22.3152 31.0774 22.3967 31.0873C22.4782 31.0971 22.5569 31.1229 22.6285 31.1631L27.5749 33.9217C28.1203 34.2216 28.8084 34.0221 29.1085 33.4766C29.4036 32.9401 29.2059 32.2569 28.6687 31.9468C28.6339 31.9294 24.216 29.436 24.216 29.436C24.0716 29.3545 23.9656 29.219 23.9212 29.0593C23.8768 28.8996 23.8976 28.7288 23.9792 28.5845C24.0195 28.513 24.0735 28.4501 24.1382 28.3995C24.2028 28.3489 24.2768 28.3116 24.3559 28.2896C24.435 28.2676 24.5176 28.2614 24.5991 28.2714C24.6805 28.2813 24.7593 28.3073 24.8307 28.3477L29.1799 30.8043C29.4342 30.9479 29.7328 30.982 30.0203 30.9002C30.3164 30.8161 30.5604 30.6227 30.7073 30.3557C31.0027 29.8186 30.7994 29.1285 30.2538 28.8176ZM34.1871 27.1763L31.0058 19.0459L29.2065 20.009C27.9492 20.663 26.7513 20.1734 25.5928 19.6999C24.0106 19.0532 22.3745 18.3845 20.0099 20.0191C19.5146 20.3615 19.0131 20.7882 18.5192 21.2873C17.3985 22.4197 16.0105 23.4909 14.3862 24.4774C16.058 26.2906 17.8488 25.5659 19.8963 24.7371C21.5413 24.0712 23.2422 23.3824 24.806 24.2737L30.8728 27.7316C31.1308 27.8784 31.3594 28.0718 31.5468 28.302L34.1871 27.1763ZM38.7236 26.4341L34.6903 16.1261C34.6138 15.9308 34.3778 15.8275 34.1826 15.904L31.8903 16.8009C31.6926 16.8783 31.5908 17.1108 31.6682 17.3086L35.7017 27.6166C35.7204 27.6645 35.7485 27.7081 35.7843 27.745C35.82 27.782 35.8627 27.8114 35.9099 27.8317C35.9569 27.8527 36.0075 27.8641 36.0589 27.8653C36.1103 27.8665 36.1614 27.8575 36.2092 27.8388L38.5015 26.9419C38.5979 26.9041 38.6743 26.8302 38.7166 26.7335C38.7588 26.6369 38.7614 26.5305 38.7236 26.4341ZM33.6234 16.9334C33.1438 16.9334 32.7527 17.3245 32.7527 17.8041C32.7527 18.2836 33.1438 18.6748 33.6234 18.6748C34.1029 18.6748 34.4941 18.2836 34.4941 17.8041C34.4941 17.3245 34.103 16.9334 33.6234 16.9334ZM6.90642 16.026C6.42627 15.9992 6.01541 16.3667 5.98861 16.8469C5.96181 17.327 6.32931 17.7379 6.80947 17.7647C7.28962 17.7915 7.70048 17.424 7.72728 16.9438C7.75408 16.4637 7.38658 16.0527 6.90642 16.026ZM6.99408 11.9185C6.68541 11.4998 6.60017 10.9955 6.75408 10.4987C7.18267 9.11477 8.17353 8.03766 9.43259 7.48211C8.94189 6.98141 8.63853 6.29641 8.63853 5.54164C8.63853 4.01172 9.8833 2.76695 11.4132 2.76695C12.9431 2.76695 14.1878 4.01164 14.1878 5.54156C14.1878 6.29602 13.8847 6.9807 13.3945 7.48133C14.0161 7.75656 14.5726 8.16015 15.0272 8.66562C15.732 7.76431 16.669 7.07198 17.7375 6.66297C16.9824 6.02078 16.502 5.06477 16.502 3.9982C16.502 2.0693 18.0714 0.5 20.0003 0.5C21.9292 0.5 23.4985 2.0693 23.4985 3.99828C23.4985 5.06492 23.0181 6.02094 22.2631 6.66313C23.3316 7.07217 24.2686 7.76452 24.9734 8.66586C25.428 8.1604 25.9845 7.75681 26.6061 7.48156C26.1159 6.98086 25.8127 6.29617 25.8127 5.54172C25.8127 4.0118 27.0575 2.76711 28.5874 2.76711C30.1174 2.76711 31.3621 4.0118 31.3621 5.54172C31.3621 6.29656 31.0588 6.98156 30.5681 7.48227C31.827 8.03781 32.818 9.11484 33.2465 10.4989C33.4004 10.9957 33.3152 11.4999 33.0065 11.9187C32.6977 12.3374 32.2413 12.568 31.7212 12.568H26.2754V13.0915C26.2753 14.2735 25.3136 15.2352 24.1317 15.2352H15.8688C14.6868 15.2352 13.7253 14.2735 13.7253 13.0915V12.5679H8.27939C7.75908 12.5678 7.30267 12.3373 6.99408 11.9185ZM28.5868 7.06633H28.588C29.4284 7.06602 30.1121 6.38219 30.1121 5.54172C30.1121 4.70102 29.4281 4.01711 28.5874 4.01711C27.7467 4.01711 27.0627 4.70102 27.0627 5.54172C27.0627 6.38219 27.7464 7.06602 28.5868 7.06633ZM25.6724 9.7875C25.9088 10.2734 26.0816 10.7879 26.1863 11.318H31.7212C31.8406 11.318 31.9294 11.2732 32.0004 11.177C32.0713 11.0809 32.0878 10.9828 32.0525 10.8687C31.5799 9.34234 30.1877 8.3168 28.5883 8.31641H28.5868C27.4201 8.31656 26.3549 8.86133 25.6724 9.7875ZM19.9987 6.24648H20.0019C21.2409 6.24563 22.2486 5.23742 22.2486 3.99828C22.2485 2.75859 21.24 1.75 20.0003 1.75C18.7606 1.75 17.752 2.75859 17.752 3.99828C17.752 5.23742 18.7598 6.24563 19.9987 6.24648ZM14.9753 11.9771V13.0914C14.9753 13.5842 15.3761 13.9851 15.8688 13.9851H24.1317C24.6245 13.9851 25.0253 13.5841 25.0253 13.0914V11.9771C24.7356 9.42078 22.5817 7.49727 20.0018 7.49648H20.0002L19.9986 7.49641C17.4187 7.49727 15.2649 9.42086 14.9753 11.9771ZM11.4126 7.06617H11.4137C12.2542 7.06586 12.9378 6.38203 12.9378 5.54156C12.9378 4.70086 12.2538 4.01687 11.4131 4.01687C10.5724 4.01687 9.88845 4.70086 9.88845 5.54156C9.88845 6.38211 10.5721 7.06586 11.4126 7.06617ZM8.00017 11.1769C8.07111 11.273 8.15978 11.3179 8.27931 11.3179H13.8142C13.919 10.7878 14.0917 10.2734 14.3281 9.78742C13.6456 8.86125 12.5803 8.31648 11.4137 8.31625H11.4122C9.81267 8.31664 8.42056 9.34219 7.94791 10.8685C7.91267 10.9826 7.92923 11.0806 8.00017 11.1769Z" fill="#FCFCFC"/>
</g>
<defs>
<clipPath id="clip0_120_797">
<rect width="40" height="40" fill="white" transform="translate(0 0.5)"/>
</clipPath>
</defs>
</svg>
