<svg width="40" height="41" viewBox="0 0 40 41" fill="none" xmlns="http://www.w3.org/2000/svg">
<path d="M36.2875 5.90181C36.1951 5.85704 36.0936 5.83422 35.9909 5.83515C35.8882 5.83607 35.7871 5.86071 35.6955 5.90715L32.8225 7.36432L30.5741 3.50207C30.1964 2.79422 29.6327 2.20287 28.9438 1.79173C28.2549 1.3806 27.4668 1.16528 26.6645 1.16899H15.5537C14.738 1.17097 13.9365 1.38283 13.2263 1.78419C12.5162 2.18556 11.9213 2.76292 11.4988 3.46074L9.43237 6.81905C9.34059 6.96816 9.31116 7.1474 9.35045 7.31803C9.38974 7.48867 9.49459 7.63699 9.64235 7.73095L16.9749 12.3971C17.0817 12.465 17.2056 12.5011 17.3322 12.5011C17.3875 12.5012 17.4426 12.4942 17.4962 12.4804C17.5842 12.4581 17.6667 12.4181 17.7387 12.3627C17.8107 12.3073 17.8706 12.2378 17.9148 12.1585L20.7145 7.12101L23.7808 12.9204L20.9891 14.5955C20.8696 14.6672 20.7755 14.7746 20.7201 14.9025C20.6648 15.0305 20.6509 15.1726 20.6805 15.3088C20.71 15.445 20.7814 15.5685 20.8847 15.662C20.988 15.7555 21.118 15.8143 21.2564 15.8301L31.1773 16.9579C31.2023 16.9606 31.2275 16.9619 31.2527 16.9619C31.3779 16.962 31.5006 16.9267 31.6067 16.8602C31.7128 16.7937 31.798 16.6987 31.8526 16.586L36.5968 6.79238C36.6349 6.7136 36.6572 6.62808 36.6623 6.54069C36.6675 6.4533 36.6553 6.36575 36.6266 6.28306C36.5979 6.20036 36.5532 6.12413 36.495 6.05871C36.4368 5.9933 36.3663 5.93998 36.2875 5.90181ZM17.0929 10.8919L10.9115 6.95895L12.638 4.15392C12.9412 3.65134 13.3688 3.23535 13.8795 2.94603C14.3901 2.65671 14.9668 2.50382 15.5537 2.5021H18.2601L19.9119 5.81841L17.0929 10.8919ZM30.8587 15.58L23.3609 14.7274L25.008 13.7389C25.154 13.6511 25.2609 13.5107 25.3067 13.3466C25.3524 13.1824 25.3336 13.007 25.254 12.8563L19.7792 2.5021H26.6645C27.2325 2.50127 27.7898 2.65618 28.2759 2.95C28.762 3.24382 29.1583 3.66529 29.4215 4.16858L31.9866 8.57677C32.0724 8.7235 32.2109 8.83193 32.374 8.87988C32.5371 8.92783 32.7123 8.91168 32.8638 8.83475L34.5343 7.98817L30.8587 15.58ZM39.4165 19.8362L37.262 15.5327C37.2212 15.451 37.1641 15.3786 37.0942 15.32C37.0243 15.2613 36.9431 15.2176 36.8556 15.1916C36.7681 15.1656 36.6762 15.1578 36.5855 15.1688C36.4949 15.1798 36.4075 15.2093 36.3288 15.2554L28.3297 19.9215C28.179 20.0094 28.0687 20.1529 28.0226 20.3211C27.9765 20.4894 27.9982 20.669 28.083 20.8214L30.864 25.8329H24.6647V23.1665C24.6648 23.032 24.6241 22.9005 24.548 22.7895C24.472 22.6785 24.3641 22.5931 24.2386 22.5446C24.1131 22.496 23.9758 22.4866 23.8449 22.5175C23.7139 22.5485 23.5954 22.6183 23.5048 22.7179L16.8389 30.0504C16.7337 30.1663 16.6725 30.3154 16.6662 30.4718C16.6598 30.6281 16.7087 30.7817 16.8042 30.9057L23.4702 39.5714C23.5551 39.6816 23.6724 39.7625 23.8056 39.8026C23.9388 39.8428 24.0812 39.8403 24.2129 39.7955C24.3446 39.7506 24.459 39.6657 24.54 39.5526C24.621 39.4395 24.6646 39.3039 24.6647 39.1648V37.165H29.3309C30.1362 37.1848 30.9308 36.9763 31.6225 36.5634C32.3143 36.1505 32.875 35.5502 33.2398 34.8319L37.9059 26.8368L39.2925 24.597C39.733 23.8856 39.9766 23.0699 39.9983 22.2334C40.0201 21.3969 39.8193 20.5696 39.4165 19.8362ZM32.0806 34.176C31.8291 34.6864 31.4362 35.1139 30.9487 35.4074C30.4612 35.701 29.8997 35.8483 29.3309 35.8318H23.9981C23.8213 35.8318 23.6518 35.9021 23.5268 36.0271C23.4018 36.1521 23.3315 36.3216 23.3315 36.4984V37.205L18.1988 30.5351L23.3315 24.8903V26.4995C23.3315 26.6763 23.4018 26.8458 23.5268 26.9708C23.6518 27.0959 23.8213 27.1661 23.9981 27.1661H36.1695L32.0806 34.176ZM38.1559 23.8984L36.9561 25.8316H32.3892L29.5642 20.7475L36.3854 16.7672L38.2352 20.4602C38.5285 20.9887 38.6757 21.5858 38.6618 22.1901C38.6478 22.7943 38.4732 23.384 38.1559 23.8984ZM15.9377 20.8874L11.9381 12.2217C11.8819 12.0993 11.79 11.9968 11.6745 11.9277C11.559 11.8586 11.4252 11.8261 11.2908 11.8344L0.625323 12.501C0.484174 12.5098 0.349468 12.5632 0.240679 12.6535C0.131891 12.7439 0.0546597 12.8665 0.0201507 13.0037C-0.0143582 13.1408 -0.00435586 13.2854 0.0487115 13.4165C0.101779 13.5476 0.195161 13.6584 0.315357 13.7329L0.316023 13.7342L3.61167 15.778L1.4119 20.1828C1.01969 20.8955 0.815025 21.6961 0.817124 22.5095C0.819223 23.3229 1.02802 24.1224 1.4239 24.833L5.1335 31.239L7.16195 34.7526C7.59023 35.4801 8.19933 36.0846 8.93014 36.5073C9.66095 36.93 10.4886 37.1566 11.3328 37.165H13.9992C14.176 37.165 14.3455 37.0948 14.4706 36.9698C14.5956 36.8448 14.6658 36.6752 14.6658 36.4984V27.1661C14.6658 26.9893 14.5956 26.8197 14.4706 26.6947C14.3455 26.5697 14.176 26.4995 13.9992 26.4995H9.01908L12.3441 20.7301L15.0931 21.7887C15.2169 21.8363 15.352 21.8458 15.4813 21.8162C15.6105 21.7866 15.728 21.719 15.8187 21.6223C15.9094 21.5255 15.9691 21.4039 15.9903 21.273C16.0115 21.1421 15.9932 21.0079 15.9377 20.8874ZM13.3326 27.8327V35.8318H11.3328C10.7221 35.8259 10.1233 35.6622 9.59454 35.3565C9.06578 35.0508 8.62506 34.6136 8.31516 34.0873L6.48535 30.917L8.37315 27.8327H13.3326ZM12.2907 19.2809C12.1425 19.224 11.9787 19.2218 11.829 19.2749C11.6793 19.3279 11.5535 19.4327 11.4741 19.5702L5.7081 29.5745L2.57778 24.1664C2.29475 23.6493 2.14829 23.0685 2.15225 22.479C2.15622 21.8895 2.31048 21.3107 2.60044 20.7974L5.07951 15.8287C5.15439 15.6797 5.17074 15.5081 5.12533 15.3477C5.07992 15.1873 4.97605 15.0497 4.8342 14.9621L2.79509 13.7009L10.9189 13.1949L14.0385 19.9542L12.2907 19.2809Z" fill="#FCFCFC"/>
</svg>
