<svg width="40" height="41" viewBox="0 0 40 41" fill="none" xmlns="http://www.w3.org/2000/svg">
<path fill-rule="evenodd" clip-rule="evenodd" d="M33.3662 13.8212C33.4416 14.1986 33.4854 14.5804 33.4928 14.9673C33.5249 16.6421 32.7535 18.4864 31.4786 19.9069C30.1968 21.335 28.4149 22.3288 26.473 22.3288C24.5311 22.3288 22.7492 21.335 21.4674 19.9069C20.1925 18.4864 19.4211 16.6421 19.4532 14.9673C19.4963 12.7236 20.7899 10.643 22.2903 8.62296C23.6861 6.74374 25.2575 4.91566 25.9575 3.00499C25.9962 2.89941 26.0664 2.80826 26.1586 2.74387C26.2508 2.67947 26.3605 2.64494 26.473 2.64494C26.5855 2.64494 26.6952 2.67947 26.7874 2.74387C26.8796 2.80826 26.9498 2.89941 26.9885 3.00499C27.4866 4.3646 28.4294 5.68178 29.4321 7.00696C29.6412 6.67158 29.874 6.34068 30.1174 6.013C30.8661 5.00492 31.7141 4.02743 32.0896 3.00248C32.1283 2.89682 32.1984 2.80558 32.2906 2.74112C32.3828 2.67666 32.4926 2.64209 32.6051 2.64209C32.7176 2.64209 32.8274 2.67666 32.9196 2.74112C33.0118 2.80558 33.082 2.89682 33.1206 3.00248C33.4961 4.02743 34.3441 5.00492 35.0928 6.013C35.9463 7.16194 36.6694 8.35096 36.6939 9.62711C36.7125 10.6005 36.2694 11.6746 35.5285 12.5001C34.9517 13.1428 34.1997 13.6313 33.3662 13.8212ZM28.8677 8.07872C27.9714 6.89974 27.0974 5.72554 26.4727 4.53284C25.6357 6.12798 24.351 7.69001 23.1718 9.27762C21.8154 11.104 20.5899 12.9598 20.551 14.9884C20.5237 16.4106 21.202 17.9672 22.2846 19.1735C23.3602 20.372 24.8434 21.2307 26.473 21.2307C28.1026 21.2307 29.5858 20.372 30.6614 19.1735C31.744 17.9672 32.4223 16.4106 32.395 14.9884C32.3878 14.6168 32.3398 14.2509 32.2583 13.8897C31.2605 13.7866 30.3527 13.2477 29.6818 12.5001C28.9408 11.6746 28.4977 10.6005 28.5164 9.62711C28.5265 9.09707 28.6572 8.58209 28.8677 8.07872ZM32.6052 12.8095C33.4259 12.8095 34.1695 12.3703 34.7113 11.7667C35.26 11.1553 35.6099 10.369 35.5961 9.64821C35.5757 8.58719 34.9208 7.62288 34.2114 6.66766C33.6544 5.91778 33.0574 5.17668 32.6051 4.42648C32.1528 5.17668 31.5558 5.91778 30.9989 6.66766C30.2894 7.62288 29.6346 8.58719 29.6142 9.64821C29.6004 10.369 29.9503 11.1553 30.499 11.7667C31.0407 12.3703 31.7844 12.8095 32.6052 12.8095ZM10.9363 34.1217L11.2451 34.8634L11.2453 34.8641C11.4248 35.2982 11.4251 35.7356 11.2479 36.1721L11.247 36.1743C11.0674 36.6052 10.758 36.9157 10.3226 37.099L10.3212 37.0996L7.60241 38.2267C6.73417 38.5893 5.72876 38.1734 5.36868 37.3058C3.8348 33.6201 2.29872 29.9344 0.764918 26.2488C0.58178 25.8157 0.581231 25.376 0.761702 24.9396C0.941702 24.5042 1.25284 24.1934 1.68523 24.0132L4.4068 22.8837C5.27449 22.5235 6.27661 22.9357 6.64029 23.8041L6.64053 23.8046L6.91315 24.4597C8.27033 23.8183 9.62555 23.1728 10.9745 22.513C12.7596 21.6397 14.166 21.0567 15.8052 21.2782C16.8773 21.423 18.0579 21.9132 19.5116 22.9324L24.546 24.2811C25.4008 24.51 26.0695 25.0976 26.4334 25.8389L33.5201 23.7599C36.5002 22.8856 38.1499 23.5071 38.8744 24.4863C39.3517 25.1313 39.4742 25.9671 39.2955 26.7928C39.0425 27.9623 38.1798 29.0982 37.0027 29.5524L26.3864 33.6433C24.6165 34.3244 22.253 35.2834 20.3536 34.732L14.6978 33.0913L14.6969 33.091C14.0104 32.8906 13.3517 32.9463 12.7079 33.2599L10.9363 34.1217ZM10.2305 35.284C10.0619 34.879 5.79096 24.6215 5.62696 24.2275C5.49676 23.9171 5.13833 23.7692 4.82782 23.898L2.10719 25.0272C1.95237 25.0917 1.84107 25.2033 1.7766 25.3593C1.71284 25.5135 1.71198 25.6689 1.77762 25.8237L1.77833 25.8255C3.31237 29.5116 4.8486 33.1977 6.38272 36.8841L6.3828 36.8843C6.51135 37.1939 6.87002 37.3427 7.18068 37.2126L9.89872 36.0859L9.89982 36.0854C10.0554 36.0194 10.1673 35.9085 10.2328 35.7529C10.295 35.597 10.2949 35.4399 10.2305 35.284ZM10.5135 33.106L12.227 32.2724C13.1261 31.8346 14.0459 31.7569 15.0037 32.0364L20.6597 33.6772C21.466 33.9114 22.3684 33.7996 23.2575 33.5717C24.2241 33.3241 25.1752 32.9326 25.9917 32.6184L36.6074 28.5277C37.4423 28.2055 38.0426 27.3902 38.2221 26.5606C38.3317 26.0535 38.2846 25.5356 37.9915 25.1395C37.743 24.8035 37.3234 24.5697 36.7197 24.4768C35.9994 24.366 35.0495 24.4558 33.8293 24.8138L26.7273 26.8972C26.7556 27.2347 26.7252 27.5745 26.6374 27.9015C26.2168 29.4718 24.5863 30.4138 23.0169 29.9907L16.2005 28.1655C16.0599 28.1277 15.94 28.0357 15.8671 27.9096C15.7943 27.7835 15.7745 27.6336 15.8121 27.4929C15.8499 27.3523 15.9419 27.2324 16.068 27.1596C16.1941 27.0867 16.3439 27.0669 16.4846 27.1045L23.301 28.9298L23.3019 28.93C24.2883 29.196 25.3123 28.6038 25.5765 27.6174C25.8408 26.6306 25.2486 25.6063 24.2619 25.3419L19.1329 23.968C19.0699 23.9511 19.0104 23.9231 18.9572 23.8854C17.6542 22.9606 16.6123 22.4955 15.658 22.3666C14.2277 22.1732 13.0149 22.7374 11.4571 23.4995C10.0882 24.1691 8.71292 24.824 7.33574 25.4748C8.39472 28.0184 9.45441 30.5621 10.5135 33.106Z" fill="#FCFCFC"/>
</svg>
