<svg width="40" height="41" viewBox="0 0 40 41" fill="none" xmlns="http://www.w3.org/2000/svg">
<path fill-rule="evenodd" clip-rule="evenodd" d="M20.1305 31.599H14.7183V33.7538C14.72 34.1591 14.8817 34.5473 15.1682 34.8339C15.4548 35.1205 15.8431 35.2822 16.2483 35.2839H24.0126C24.4179 35.2823 24.8061 35.1206 25.0927 34.834C25.3793 34.5474 25.541 34.1591 25.5426 33.7538V31.599H20.1305ZM34.6973 23.8943C34.7681 23.9354 34.8302 23.99 34.8799 24.055C34.9297 24.12 34.9662 24.1942 34.9873 24.2733C35.0083 24.3525 35.0136 24.435 35.0028 24.5161C34.992 24.5973 34.9654 24.6756 34.9243 24.7464C34.8833 24.8173 34.8287 24.8794 34.7637 24.9291C34.6986 24.9789 34.6244 25.0153 34.5453 25.0364C34.4662 25.0575 34.3837 25.0628 34.3025 25.052C34.2214 25.0412 34.1431 25.0145 34.0723 24.9735L32.3307 23.9679C32.2592 23.9272 32.1965 23.8728 32.1461 23.8077C32.0957 23.7427 32.0588 23.6683 32.0373 23.5889C32.0158 23.5094 32.0103 23.4266 32.021 23.345C32.0317 23.2634 32.0584 23.1848 32.0996 23.1136C32.1409 23.0424 32.1958 22.9801 32.2612 22.9302C32.3266 22.8803 32.4013 22.8439 32.4809 22.823C32.5605 22.8021 32.6434 22.7972 32.7249 22.8085C32.8064 22.8198 32.8848 22.8471 32.9557 22.8889L34.6973 23.8943ZM35.4578 11.5111C35.6177 11.4683 35.7881 11.4909 35.9314 11.5737C36.0747 11.6566 36.1792 11.793 36.2219 11.9529C36.2647 12.1129 36.2421 12.2832 36.1593 12.4265C36.0764 12.5698 35.94 12.6743 35.7801 12.7171L33.8376 13.2375C33.6776 13.2803 33.5073 13.2577 33.364 13.1748C33.2207 13.092 33.1162 12.9556 33.0735 12.7956C33.0307 12.6357 33.0533 12.4654 33.1362 12.3221C33.219 12.1788 33.3554 12.0743 33.5154 12.0315L35.4578 11.5111ZM6.691 25.8437C6.62012 25.8855 6.54167 25.9128 6.46018 25.9241C6.37869 25.9354 6.29577 25.9305 6.21619 25.9096C6.13662 25.8887 6.06196 25.8523 5.99653 25.8024C5.93109 25.7525 5.87618 25.6902 5.83494 25.619C5.79371 25.5478 5.76697 25.4692 5.75627 25.3876C5.74557 25.306 5.75112 25.2232 5.7726 25.1437C5.79407 25.0643 5.83106 24.9899 5.88141 24.9249C5.93177 24.8598 5.99451 24.8054 6.066 24.7647L7.80757 23.7591C7.95067 23.6762 8.12083 23.6536 8.28063 23.6962C8.44042 23.7388 8.57676 23.8431 8.65964 23.9862C8.74252 24.1293 8.76515 24.2994 8.72257 24.4592C8.67999 24.619 8.57567 24.7554 8.43257 24.8382L6.691 25.8437ZM4.22085 13.6875C4.06092 13.6447 3.92452 13.5402 3.84165 13.3969C3.75878 13.2536 3.73624 13.0833 3.77897 12.9233C3.82171 12.7634 3.92622 12.627 4.06953 12.5441C4.21283 12.4613 4.38318 12.4387 4.54311 12.4815L6.48561 13.0019C6.64554 13.0447 6.78194 13.1492 6.86481 13.2925C6.94768 13.4358 6.97022 13.6061 6.92749 13.7661C6.88475 13.926 6.78024 14.0624 6.63693 14.1453C6.49363 14.2281 6.32327 14.2507 6.16335 14.2079L4.22085 13.6875ZM11.0712 3.34474C11.0301 3.27388 11.0034 3.19563 10.9926 3.11446C10.9818 3.0333 10.9871 2.95079 11.0082 2.87167C11.0293 2.79255 11.0658 2.71836 11.1155 2.65333C11.1653 2.5883 11.2274 2.5337 11.2982 2.49267C11.4413 2.40979 11.6115 2.38715 11.7713 2.42973C11.8504 2.45082 11.9246 2.48728 11.9896 2.53704C12.0547 2.5868 12.1093 2.64888 12.1503 2.71974L13.1558 4.4613C13.1975 4.53218 13.2249 4.61063 13.2362 4.69212C13.2475 4.77361 13.2425 4.85653 13.2216 4.93611C13.2008 5.01569 13.1643 5.09034 13.1145 5.15577C13.0646 5.22121 13.0023 5.27612 12.9311 5.31736C12.8599 5.35859 12.7812 5.38533 12.6997 5.39603C12.6181 5.40673 12.5352 5.40118 12.4558 5.3797C12.3764 5.35823 12.302 5.32124 12.2369 5.27089C12.1719 5.22053 12.1174 5.15779 12.0767 5.0863L11.0712 3.34474ZM27.2406 2.21974C27.3228 2.07663 27.4585 1.97206 27.6179 1.92901C27.7772 1.88596 27.9471 1.90798 28.0902 1.9902C28.2333 2.07243 28.3379 2.20814 28.3809 2.36747C28.424 2.5268 28.402 2.69671 28.3198 2.83981L27.3142 4.58153C27.2735 4.65241 27.2192 4.71456 27.1545 4.76446C27.0897 4.81436 27.0158 4.85102 26.9369 4.87234C26.858 4.89367 26.7757 4.89924 26.6946 4.88875C26.6135 4.87825 26.5354 4.8519 26.4645 4.81118C26.3936 4.77047 26.3314 4.71619 26.2815 4.65145C26.2317 4.58672 26.195 4.51278 26.1737 4.43388C26.1523 4.35497 26.1468 4.27264 26.1573 4.19158C26.1678 4.11053 26.1941 4.03233 26.2348 3.96145L27.2403 2.21989L27.2406 2.21974ZM26.1312 24.529C26.1312 24.3633 26.1971 24.2043 26.3143 24.0871C26.4315 23.9699 26.5905 23.904 26.7562 23.904C26.922 23.904 27.081 23.9699 27.1982 24.0871C27.3154 24.2043 27.3812 24.3633 27.3812 24.529V25.9661C27.5505 25.7323 27.725 25.499 27.9026 25.2622C29.3187 23.3711 30.9155 21.2388 30.9155 16.784C30.9078 13.9287 29.7682 11.193 27.7464 9.17666C25.7247 7.16035 22.9859 6.02806 20.1306 6.02806C17.2752 6.02806 14.5364 7.16035 12.5147 9.17666C10.493 11.193 9.3533 13.9287 9.34561 16.784C9.34561 24.6387 14.3115 25.2875 14.6951 30.3488H19.1219V25.91C16.6496 25.284 14.4987 23.3098 13.1637 20.9974C12.368 19.641 11.8585 18.136 11.6667 16.5751C11.4948 15.056 11.689 13.6203 12.2333 12.445L12.2344 12.4455C12.2881 12.3292 12.3764 12.2323 12.4872 12.168C12.598 12.1037 12.7259 12.0751 12.8535 12.0861C14.1459 12.2025 15.4881 12.7526 16.7187 13.6618C18.0197 14.6228 19.1629 15.9579 20.0178 17.5625L20.1115 17.3968L20.1105 17.3961C20.8873 16.0297 21.9358 14.8369 23.1912 13.8912C24.4218 12.982 25.764 12.4318 27.0564 12.3155C27.184 12.3045 27.3119 12.3331 27.4227 12.3974C27.5335 12.4617 27.6218 12.5586 27.6755 12.6749L27.6765 12.6744C28.2209 13.8497 28.4151 15.2854 28.2432 16.8046C27.8994 19.8395 26.1217 22.9193 23.6655 24.7343C22.6154 25.5102 21.484 26.0245 20.3716 26.231V30.3491H26.1676C26.3334 30.3491 26.4924 30.415 26.6096 30.5322C26.7268 30.6494 26.7926 30.8083 26.7926 30.9741V33.754C26.7909 34.4907 26.4975 35.1969 25.9765 35.7178C25.4555 36.2388 24.7494 36.5323 24.0126 36.534H23.2248V37.5859C23.2241 37.9852 23.0651 38.368 22.7828 38.6503C22.5004 38.9327 22.1177 39.0916 21.7183 39.0923H18.5426C18.1433 39.0916 17.7605 38.9327 17.4781 38.6503C17.1958 38.368 17.0368 37.9852 17.0361 37.5859V36.5339H16.2483C15.5116 36.5321 14.8055 36.2387 14.2845 35.7177C13.7635 35.1967 13.4701 34.4906 13.4683 33.7538V30.974C13.4683 25.9917 8.09553 25.349 8.09553 16.7842C8.10365 13.5976 9.3752 10.5444 11.6313 8.29399C13.8874 6.04362 16.9439 4.77985 20.1305 4.77985C23.3171 4.77985 26.3736 6.04362 28.6297 8.29399C30.8858 10.5444 32.1573 13.5976 32.1655 16.7842C32.1655 21.647 30.4341 23.959 28.8986 26.0095C28.6408 26.3533 28.3893 26.6892 28.155 27.0284L30.117 26.3211C30.2723 26.266 30.4431 26.2746 30.592 26.3452C30.741 26.4158 30.8558 26.5425 30.9114 26.6977C30.967 26.8528 30.9588 27.0236 30.8886 27.1727C30.8184 27.3218 30.6919 27.437 30.5369 27.493L27.0217 28.7601C26.9265 28.8052 26.8214 28.8254 26.7162 28.8189C26.611 28.8124 26.5092 28.7793 26.4203 28.7228C26.3314 28.6663 26.2582 28.5882 26.2076 28.4957C26.157 28.4033 26.1307 28.2996 26.1311 28.1942V24.5292L26.1312 24.529ZM22.2184 20.6562C22.3014 20.5146 22.437 20.4115 22.5956 20.3693C22.7543 20.3272 22.9232 20.3494 23.0655 20.4312C23.2078 20.513 23.3121 20.6477 23.3555 20.806C23.399 20.9643 23.3782 21.1334 23.2976 21.2764L21.3568 24.6379C24.3646 23.3664 26.6368 19.9035 27.0031 16.6682C27.1293 15.5538 27.0306 14.5054 26.7152 13.6179C24.4412 14.0371 22.4012 15.9233 21.1898 18.0215L21.1887 18.0208C20.0559 19.9834 19.4677 22.4247 19.9923 24.5122L22.2184 20.6562ZM18.6342 24.0568L17.0289 21.2764C16.9483 21.1334 16.9275 20.9643 16.9709 20.806C17.0144 20.6477 17.1186 20.513 17.261 20.4312C17.4033 20.3494 17.5722 20.3272 17.7308 20.3693C17.8895 20.4115 18.0251 20.5146 18.108 20.6562L18.6434 21.5837C18.768 20.7019 18.9982 19.8383 19.3291 19.0115C19.259 18.847 19.1824 18.6787 19.0991 18.5066C18.3393 16.9384 17.2476 15.6024 15.9765 14.6629C15.0751 13.997 14.1192 13.5586 13.1948 13.3883C12.4218 15.564 13.0296 18.2761 14.2427 20.3773C15.2855 22.1835 16.8759 23.7504 18.7046 24.47C18.6775 24.3341 18.654 24.1963 18.6343 24.0566L18.6342 24.0568ZM21.9749 37.5859V36.5339H18.2861V37.5859C18.2867 37.6537 18.3139 37.7186 18.3619 37.7666C18.4099 37.8145 18.4747 37.8418 18.5426 37.8424H21.7183C21.7862 37.8418 21.8511 37.8145 21.899 37.7666C21.947 37.7186 21.9743 37.6537 21.9749 37.5859Z" fill="#FCFCFC"/>
</svg>
