<svg width="40" height="41" viewBox="0 0 40 41" fill="none" xmlns="http://www.w3.org/2000/svg">
<path d="M19.9996 3.43591C10.5902 3.43591 2.93555 11.0906 2.93555 20.5C2.93555 29.9094 10.5902 37.564 19.9996 37.564C29.409 37.564 37.0637 29.9094 37.0637 20.5C37.0637 11.0906 29.409 3.43591 19.9996 3.43591ZM35.2324 14.8922C34.0613 15.5969 32.9402 15.3015 31.6566 14.9617C30.5988 14.682 29.5043 14.3922 28.3207 14.682C24.891 15.5219 22.327 14.4289 22.073 13.5531C21.9379 13.089 22.5113 12.5914 23.6059 12.2234C25.2176 11.6812 25.5262 10.5672 25.7988 9.58435C26.1348 8.37263 26.4324 7.32576 29.284 7.19685C31.977 9.08201 34.0754 11.7594 35.2324 14.8922ZM28.1504 6.47185C25.6887 6.87185 25.323 8.18513 24.9965 9.36169C24.7379 10.2953 24.5332 11.0336 23.3402 11.4344C21.0801 12.1953 21.1418 13.3312 21.273 13.7851C21.7184 15.3187 24.9113 16.3742 28.5184 15.4906C29.4965 15.2515 30.4426 15.5015 31.4441 15.7664C32.1754 15.9601 32.9191 16.157 33.6801 16.1562C34.277 16.1562 34.8848 16.0312 35.5051 15.6929C35.8402 16.7726 36.0621 17.9015 36.1645 19.064C34.9934 19.3008 33.1809 19.4562 31.2699 19.6203C25.3105 20.1304 21.0395 20.6375 20.3582 22.5281C20.1215 23.1851 20.3621 23.9172 21.0684 24.7086C20.4418 25.4859 20.1637 26.6867 20.5645 28.6883C19.6691 29.339 19.0285 30.2304 18.6465 31.3554C18.4035 30.3476 18.0324 29.3594 17.4801 28.4547C20.7301 24.0148 19.0504 22.1383 17.2691 20.1554C16.1527 18.9125 14.998 17.6265 14.7566 15.5203C14.7371 15.3515 14.6176 15.2117 14.4543 15.1664C14.291 15.1211 14.116 15.1797 14.0129 15.314C12.3059 17.5429 11.4105 19.6148 11.3309 21.4984C9.25664 20.5484 6.71914 20.2383 3.76914 20.5758C3.76914 20.5508 3.76758 20.5258 3.76758 20.5008C3.76758 19.3836 3.88086 18.2914 4.09727 17.2367C4.2543 17.5578 4.45898 17.7875 4.72227 17.9273C4.92227 18.0336 5.14102 18.0883 5.39023 18.0883C5.95352 18.0883 6.67148 17.8094 7.67227 17.2203C10.3184 15.664 14.7043 12.7851 14.3527 10.9898C14.2809 10.6219 13.991 10.1531 13.0184 10.0109C12.2723 9.90154 11.2629 9.71248 11.1191 9.33669C10.909 8.78826 12.0762 7.26326 13.3902 5.67966C15.4687 4.74767 17.721 4.26653 19.9988 4.26794C22.9691 4.26794 25.7535 5.07341 28.1504 6.47185ZM21.959 28.45C22.3184 28.157 22.7707 27.8968 23.291 27.5992C24.2105 27.0734 25.3559 26.4187 26.4105 25.264C26.566 25.0945 26.5535 24.8312 26.384 24.6758C26.2145 24.5203 25.9512 24.5328 25.7957 24.7023C24.8285 25.7601 23.7918 26.3531 22.8777 26.8758C22.2707 27.2226 21.7199 27.5406 21.2762 27.939C20.8473 25.0078 22.2129 24.5812 24.198 23.9633C25.3629 23.6008 26.6582 23.1976 27.7121 22.1922C28.0301 24.1258 27.7746 25.6172 26.9488 26.6328C26.0293 27.7648 24.348 28.3765 21.959 28.45ZM12.4824 28.7687C13.3402 28.2804 13.977 27.8008 14.4223 27.3125C15.0746 27.8172 15.8277 28.2953 16.6824 28.7453C18.216 31.1383 18.316 34.3008 18.2066 36.6312C15.0043 36.2773 12.0785 34.9906 9.71133 33.0461C9.65117 31.339 10.627 29.825 12.4824 28.7687ZM15.9176 24.5453C15.2496 23.4289 14.673 22.4648 14.9895 21.4969C15.0605 21.2781 14.941 21.0437 14.723 20.9719C14.5051 20.9008 14.2691 21.0195 14.198 21.2383C13.7645 22.5672 14.4637 23.7351 15.2035 24.9718C15.7059 25.8117 16.2168 26.6765 16.4449 27.6633C14.0785 26.2922 12.6762 24.6929 12.2762 22.9008C11.8676 21.0687 12.484 18.9492 14.1098 16.5929C14.5762 18.4023 15.6691 19.6187 16.6496 20.7101C18.3027 22.5508 19.527 23.9187 17.2309 27.3601C16.9605 26.2929 16.4152 25.3765 15.9176 24.5453ZM11.5543 6.64373C10.4988 8.04216 10.0762 8.93904 10.3418 9.63435C10.6207 10.3625 11.5262 10.6336 12.8973 10.8344C13.0754 10.8601 13.4949 10.9437 13.5355 11.1492C13.652 11.7461 12.0746 13.664 7.24961 16.5023C6.15273 17.1476 5.45352 17.3734 5.11211 17.1914C4.81289 17.0328 4.62773 16.4601 4.55898 15.4976C5.7668 11.7812 8.27773 8.64763 11.5543 6.64373ZM3.79414 21.4101C6.80508 21.0554 9.34805 21.4008 11.3613 22.4375C11.3848 22.6547 11.4168 22.8703 11.4637 23.082C11.7637 24.4273 12.5426 25.6625 13.7824 26.7781C13.398 27.1898 12.827 27.614 12.0707 28.0445C10.1941 29.1133 9.10039 30.6133 8.90742 32.3344C5.9543 29.5656 4.0332 25.7094 3.79414 21.4101ZM19.0371 36.7008C19.0645 36.1367 19.0785 35.525 19.066 34.8851H19.0715C18.927 32.1781 19.6105 30.3476 21.1566 29.289C21.248 29.2906 21.3402 29.2922 21.4309 29.2922C23.2027 29.2922 24.6574 29.0297 25.7879 28.5133C26.866 29.7258 26.6184 30.5234 26.3066 31.5179C26.002 32.4914 25.6316 33.6859 26.6379 35.3078C24.609 36.2195 22.3637 36.732 19.9996 36.732C19.6762 36.732 19.3559 36.7195 19.0371 36.7008ZM27.3895 34.9445C26.5238 33.6078 26.8035 32.7109 27.0996 31.7656C27.4184 30.7469 27.773 29.6023 26.5316 28.1054C26.9449 27.8351 27.2996 27.5203 27.5941 27.1586C28.702 25.7969 28.9613 23.7914 28.3629 21.1984C28.345 21.1213 28.3056 21.0509 28.2491 20.9954C28.1927 20.9399 28.1216 20.9017 28.0441 20.8851C27.8855 20.8515 27.7223 20.9125 27.6254 21.0422C26.6574 22.3273 25.2816 22.7554 23.9512 23.1695C23.1426 23.4211 22.3246 23.6765 21.6746 24.1406C21.1965 23.6047 21.016 23.157 21.141 22.8094C21.6941 21.2742 27.2691 20.7969 31.3402 20.4484C33.2918 20.2812 35.0113 20.1344 36.216 19.9023C36.223 20.1008 36.2309 20.2992 36.2309 20.4992C36.2316 26.7898 32.6332 32.2508 27.3895 34.9445Z" fill="#FCFCFC"/>
</svg>
