<svg width="40" height="41" viewBox="0 0 40 41" fill="none" xmlns="http://www.w3.org/2000/svg">
<g clip-path="url(#clip0_120_787)">
<path d="M20.1641 24.625C20.1641 22.8672 22.875 19.6094 24.2656 18.125C25.1016 18.9141 28.5547 23.1094 28.3672 24.625C28.3984 26.6719 26.75 28.4844 24.7266 28.6875V25.1719L26.25 23.6484C26.6719 23.2188 26.0234 22.5703 25.5938 22.9922L24.7266 23.8672V21.375C24.7188 20.7734 23.8203 20.7734 23.8047 21.375V25.9531L22.9297 25.0781C22.5 24.6562 21.8594 25.3047 22.2813 25.7344L23.8047 27.2578V28.7031C21.7578 28.4688 20.1641 26.7266 20.1641 24.625ZM30.0234 14.9766C30.0234 15.3672 30.1875 15.7188 30.4844 15.9922C30.7422 16.2188 30.6484 16.6641 30.3203 16.7734C28.9141 17.2031 28.5391 19.1875 29.6875 20.1016C29.9688 20.3203 29.8672 20.7969 29.5312 20.8906C29.0312 21.0547 28.5859 21.3594 28.25 21.7578C29.0391 23.0703 29.5312 24.5 29.0859 26.0234C29.7422 26.4141 30.9297 26.3047 31.5859 25.9922C31.6484 25.8281 31.8359 25.7031 32.0078 25.7109C32.4922 25.7578 32.4609 26.2344 33.25 26.4531V24.5391L31.2422 22.5312C30.8203 22.1016 31.4609 21.4531 31.8906 21.875L33.25 23.2344V18.7578L31.8516 17.3672C31.4297 16.9375 32.0703 16.2891 32.5078 16.7109L33.25 17.4531V15.9922C33.2578 15.3906 34.1562 15.3828 34.1719 15.9922V20.5391L35.5312 19.1797C35.9609 18.7578 36.6016 19.4062 36.1797 19.8281L34.1719 21.8438V26.4219C34.6406 26.2734 34.9297 25.9375 34.9922 25.8594C35.1719 25.6016 35.5859 25.6328 35.75 25.8984C35.9609 26.2344 36.5625 26.2969 37.5547 26.1016C40.5312 25.6406 40.5234 21.7266 37.8984 20.8828C37.5625 20.7891 37.4688 20.3125 37.7422 20.0938C38.8906 19.1719 38.5156 17.1953 37.1094 16.7656C36.7812 16.6641 36.6875 16.2109 36.9453 15.9844C37.8828 15.2031 37.2656 13.5859 36.0547 13.6172C35.9141 13.6094 35.4844 13.8438 35.2891 13.6484C35.0938 13.5312 35.0781 13.2734 35.0938 13.0703C35.0938 11.3672 34.3672 10.0938 33.7188 10.0938C33.0391 10.0391 32.25 11.6562 32.3438 13.2734C32.3516 13.5859 32.0078 13.8203 31.7188 13.7031C30.8516 13.375 30.0234 14.1328 30.0234 14.9766ZM37.5547 36.4453C36.9766 36.3594 36.1875 37.1016 35.9688 36.2969C35.3594 32.6797 30.1797 32.8984 29.8906 36.5469C29.8828 36.8594 29.5312 37.0781 29.25 36.9453C28.4844 36.6172 27.5859 36.8125 27.0391 37.4219C26.8906 37.5781 26.6641 37.6172 26.4766 37.5156C25.9688 37.2188 26.4922 36.4609 26.3984 35.9922C26.3984 33.9922 24.7656 32.3516 22.7656 32.3516C21.6094 32.3516 20.5469 32.8906 19.8438 33.8281C19.7422 33.9688 19.5703 34.0391 19.3984 34.0078C19.2266 33.9766 19.0859 33.8594 19.0312 33.6953C18.7734 32.8906 18.0312 32.3516 17.1875 32.3516C16.1172 32.3516 15.2422 33.2266 15.2422 34.3047C15.2422 34.5078 15.3125 34.7344 15.1641 34.9062C15.0859 35 14.9688 35.0703 14.8438 35.0781C14.1562 35.1484 13.5078 35.4531 13.0078 35.9453C12.8281 36.1328 12.4687 36.1172 12.3203 35.8906C11.0391 34.0859 8.05469 34.5781 7.4375 36.7109C7.34375 37.0547 6.86719 37.1406 6.64844 36.875C6.27344 36.4297 5.73438 36.1797 5.16406 36.1797C4.32812 36.1797 3.58594 36.7109 3.32031 37.5078C3.22656 37.8359 2.75781 37.9297 2.53906 37.6641C2.27344 37.3672 1.91406 37.2109 1.53125 37.2109C0.789063 37.2109 0.179688 37.8125 0.179688 38.5625C0.179688 38.9609 0.734375 39.8438 1.1875 40.4453H39.0859C40.6328 39.0781 39.6016 36.4062 37.5547 36.4453ZM3.03906 24.1719C4.32031 22.9844 5.65625 21.8438 7.01562 20.7891C7.08594 20.7344 7.17187 20.6953 7.26562 20.6953C8.04688 20.6484 8.82031 20.375 9.46875 19.9531C9.60156 19.8672 9.76562 19.8516 9.91406 19.9141C10.5234 20.1875 11.2344 20.1875 11.8516 19.9297C12.0391 19.8125 12.9688 20.1094 13.2109 20.1406L13.5391 19.8359C13.6016 19.4609 13.5547 18.6875 13.7812 18.5547C14.5781 17.8281 15.9844 16.2812 16.4219 13.9844C16.5781 13.1641 16.6016 12.3047 16.4844 11.4531C16.3906 11.0781 16.2891 10.3828 16.6328 9.63281C16.8594 9.1875 17.2031 8.69531 17.6953 8.50781C17.6875 8.35156 17.6328 8.19531 17.5391 8.0625C17.4141 7.78906 17.3438 7.47656 17.125 7.29688C16.6953 6.86719 16.0469 6.88281 15.6953 6.89062C14.5156 6.92188 12.9219 8.66406 11.8281 11.125C10.9062 11.9766 9.98438 12.5703 9.19531 13.6719C8.48437 14.5859 7.91406 15.5938 7.5 16.6719C7.48437 16.7109 7.46875 16.7422 7.44531 16.7734L6.48438 18.1484C11.8516 17.9297 15.9766 15.4922 12.8828 12.3203C12.4766 11.8828 13.1406 11.25 13.5547 11.6875C17.4297 15.9219 12.1484 18.9141 6.39844 19.0703C5.44531 20.3516 4.36719 21.5312 3.17188 22.5938C3.33594 22.7578 3.34375 23.0391 3.1875 23.2031L0.328125 26.6094C0.226562 26.7344 0.179688 26.8828 0.1875 27.0391C1.10156 26.0391 2.0625 25.0781 3.03906 24.1719ZM25.9219 6.94531C27.9375 6.89062 27.9375 3.9375 25.9219 3.89062C23.9062 3.9375 23.9062 6.89062 25.9219 6.94531ZM23.0859 7.60156L22.5 8.1875C22.2031 8.46094 22.4297 8.98438 22.8281 8.97656C23.1094 9.01562 23.5312 8.42188 23.7344 8.25781C24.1562 7.82812 23.5156 7.17969 23.0859 7.60156ZM28.4375 3.36719C28.7188 3.40625 29.1406 2.8125 29.3438 2.64844C29.5234 2.46875 29.5234 2.17969 29.3438 2C29.1641 1.82031 28.875 1.82031 28.6953 2L28.1094 2.58594C27.8125 2.85156 28.0391 3.375 28.4375 3.36719ZM21.5469 5.875H22.375C22.9766 5.875 22.9766 4.95312 22.375 4.95312H21.5469C20.9453 4.96094 20.9453 5.875 21.5469 5.875ZM29.0156 5.41406C29.0156 5.67188 29.2188 5.875 29.4766 5.875H30.3047C30.5625 5.875 30.7656 5.67188 30.7656 5.41406C30.7656 5.15625 30.5625 4.95312 30.3047 4.95312H29.4766C29.2188 4.95312 29.0156 5.16406 29.0156 5.41406ZM23.0859 3.22656C23.5156 3.64844 24.1641 3 23.7344 2.57812L23.1484 1.99219C22.9688 1.8125 22.6797 1.8125 22.5 1.99219C22.3203 2.17188 22.3203 2.46094 22.5 2.64062L23.0859 3.22656ZM28.6953 8.83594C29.125 9.25781 29.7734 8.60938 29.3438 8.1875L28.7578 7.60156C28.5781 7.42188 28.2891 7.42188 28.1094 7.60156C27.9297 7.78125 27.9297 8.07031 28.1094 8.25L28.6953 8.83594ZM25.9219 2.32031C26.1797 2.32031 26.3828 2.11719 26.3828 1.85938V1.03906C26.3828 0.78125 26.1797 0.578125 25.9219 0.578125C25.6641 0.578125 25.4609 0.78125 25.4609 1.03906V1.86719C25.4609 2.11719 25.6641 2.32031 25.9219 2.32031ZM25.4609 8.96875V9.79688C25.4609 10.3984 26.3828 10.3984 26.3828 9.79688V8.96875C26.3828 8.36719 25.4609 8.36719 25.4609 8.96875ZM0.867188 5.70312C0.867188 3.39062 2.75781 1.5 5.07031 1.5C10.6406 1.71875 10.6406 9.6875 5.07031 9.90625C2.75 9.90625 0.867188 8.02344 0.867188 5.70312ZM2.20312 5.40625C2.42969 5.96094 3 6.42188 3.59375 6.26562L3.21094 6.78125C2.53906 7.63281 3.21875 8.99219 4.30469 8.96094H5.83594C6.92187 8.99219 7.60937 7.63281 6.92969 6.78125L6.54688 6.26562C7.42969 6.52344 8.26562 5.33594 8.02344 4.47656C7.80469 3.50781 6.60156 3.4375 6.08594 4.26562C6.375 3.48438 5.85938 2.39844 5.07031 2.42969C4.27344 2.39844 3.76563 3.48438 4.05469 4.26562C3.16406 2.98438 1.61719 4.03125 2.20312 5.40625ZM5.07031 4.19531C5.10156 4.19531 5.24219 4.05469 5.24219 3.77344C5.24219 3.5 5.10156 3.35938 5.07031 3.35938C5.03906 3.35938 4.89844 3.5 4.89844 3.77344C4.89844 4.05469 5.03906 4.19531 5.07031 4.19531ZM7.08594 5.05469C7.14844 4.91406 7.17187 4.71094 7.08594 4.60938C7.03125 4.60938 6.875 4.6875 6.76562 4.92969C6.66406 5.1875 6.73437 5.36719 6.77344 5.38281C6.80469 5.39062 6.98437 5.3125 7.08594 5.05469ZM4.30469 8.03906H5.83594C6.1875 8.05469 6.41406 7.60938 6.1875 7.32812L5.42188 6.28906C5.25 6.0625 4.875 6.0625 4.71094 6.28906L3.94531 7.32812C3.72656 7.60938 3.95312 8.05469 4.30469 8.03906ZM4.32031 5.42969C4.75781 5.11719 5.39062 5.11719 5.82031 5.42969C5.78125 5.1875 5.79688 4.92188 5.89062 4.66406C5.50781 5.25781 4.63281 5.26562 4.25 4.66406C4.34375 4.91406 4.36719 5.17969 4.32031 5.42969ZM3.28125 5.34375C3.33594 5.375 3.36719 5.375 3.375 5.375C3.53906 5.16406 3.30469 4.625 3.07031 4.60938C2.89844 4.75 3.07031 5.24219 3.28125 5.34375ZM33.1953 32.5547H34.1172V27.5156H33.1953V32.5547ZM23.7891 31.8203H24.7109V29.1406H23.7891V31.8203ZM12.8047 34.5H13.7266V21.6953H12.8047V34.5Z" fill="#FCFCFC"/>
</g>
<defs>
<clipPath id="clip0_120_787">
<rect width="40" height="40" fill="white" transform="translate(0 0.5)"/>
</clipPath>
</defs>
</svg>
