<svg width="80" height="80" viewBox="0 0 80 80" fill="none" xmlns="http://www.w3.org/2000/svg">
<path d="M37.9794 30.1625V15.4562C37.9784 14.6735 37.667 13.9231 37.1136 13.3696C36.5601 12.8161 35.8097 12.5047 35.0269 12.5037H20.3207C19.5379 12.5047 18.7875 12.8161 18.234 13.3696C17.6805 13.9231 17.3692 14.6735 17.3682 15.4562V30.1625C17.3692 30.9452 17.6805 31.6956 18.234 32.2491C18.7875 32.8026 19.5379 33.114 20.3207 33.115H35.0269C35.8097 33.114 36.5601 32.8026 37.1136 32.2491C37.667 31.6956 37.9784 30.9452 37.9794 30.1625ZM19.8669 30.1625V15.4562C19.8672 15.3361 19.9152 15.221 20.0003 15.1362C20.0853 15.0514 20.2005 15.0037 20.3207 15.0037H35.0269C35.1468 15.0041 35.2617 15.0518 35.3465 15.1366C35.4313 15.2214 35.4791 15.3363 35.4794 15.4562V30.1625C35.4907 30.83 34.4357 30.5662 34.0444 30.615C33.9907 26.7975 30.6694 24.5062 27.0344 24.9125C25.5197 24.9144 24.0672 25.5148 22.9932 26.583C21.9192 27.6511 21.3109 29.1003 21.3007 30.615C20.9219 30.5637 19.8557 30.8337 19.8682 30.1625H19.8669ZM31.5444 30.615H23.8007C23.8102 29.7632 24.1549 28.9494 24.7602 28.35C25.3655 27.7506 26.1826 27.4137 27.0344 27.4125H28.3094C29.1614 27.4137 29.9786 27.7505 30.5841 28.3499C31.1895 28.9493 31.5346 29.7631 31.5444 30.615Z" fill="#0E5103"/>
<path d="M27.6745 23.4275C28.6628 23.4275 29.6105 23.0349 30.3093 22.3361C31.0082 21.6373 31.4007 20.6895 31.4007 19.7013C31.4007 18.713 31.0082 17.7652 30.3093 17.0664C29.6105 16.3676 28.6628 15.975 27.6745 15.975C26.6862 15.975 25.7384 16.3676 25.0396 17.0664C24.3408 17.7652 23.9482 18.713 23.9482 19.7013C23.9482 20.6895 24.3408 21.6373 25.0396 22.3361C25.7384 23.0349 26.6862 23.4275 27.6745 23.4275ZM27.6745 18.475C27.9997 18.475 28.3116 18.6042 28.5416 18.8342C28.7715 19.0642 28.9007 19.3761 28.9007 19.7013C28.9007 20.0265 28.7715 20.3384 28.5416 20.5684C28.3116 20.7983 27.9997 20.9275 27.6745 20.9275C27.3493 20.9275 27.0374 20.7983 26.8074 20.5684C26.5774 20.3384 26.4482 20.0265 26.4482 19.7013C26.4482 19.3761 26.5774 19.0642 26.8074 18.8342C27.0374 18.6042 27.3493 18.475 27.6745 18.475ZM56.0257 24.4875H45.5545C45.223 24.4875 44.905 24.6192 44.6706 24.8536C44.4362 25.0881 44.3045 25.406 44.3045 25.7375C44.3045 26.069 44.4362 26.387 44.6706 26.6214C44.905 26.8558 45.223 26.9875 45.5545 26.9875H56.0257C56.3573 26.9875 56.6752 26.8558 56.9096 26.6214C57.144 26.387 57.2757 26.069 57.2757 25.7375C57.2757 25.406 57.144 25.0881 56.9096 24.8536C56.6752 24.6192 56.3573 24.4875 56.0257 24.4875ZM56.0257 29.7463H45.5545C45.223 29.7463 44.905 29.878 44.6706 30.1124C44.4362 30.3468 44.3045 30.6648 44.3045 30.9963C44.3045 31.3278 44.4362 31.6457 44.6706 31.8802C44.905 32.1146 45.223 32.2463 45.5545 32.2463H56.0257C56.3573 32.2463 56.6752 32.1146 56.9096 31.8802C57.144 31.6457 57.2757 31.3278 57.2757 30.9963C57.2757 30.6648 57.144 30.3468 56.9096 30.1124C56.6752 29.878 56.3573 29.7463 56.0257 29.7463ZM45.042 21.5088H46.632C46.9635 21.5088 47.2815 21.3771 47.5159 21.1427C47.7503 20.9082 47.882 20.5903 47.882 20.2588C47.882 19.9273 47.7503 19.6093 47.5159 19.3749C47.2815 19.1405 46.9635 19.0088 46.632 19.0088H45.042C42.7332 18.9663 42.732 15.0463 45.042 15.0038H46.632C46.9635 15.0038 47.2815 14.8721 47.5159 14.6377C47.7503 14.4032 47.882 14.0853 47.882 13.7538C47.882 13.4223 47.7503 13.1043 47.5159 12.8699C47.2815 12.6355 46.9635 12.5038 46.632 12.5038H45.042C39.4282 12.6538 39.4295 21.3588 45.042 21.5088ZM51.9082 20.7563C52.0071 20.975 52.1664 21.161 52.3675 21.2922C52.5685 21.4233 52.8029 21.4943 53.0429 21.4967C53.283 21.499 53.5187 21.4327 53.7223 21.3055C53.9259 21.1783 54.0889 20.9955 54.192 20.7788L57.1632 14.2738C57.3012 13.9721 57.3136 13.628 57.1978 13.3171C57.082 13.0063 56.8474 12.7542 56.5457 12.6163C56.2441 12.4784 55.8999 12.4659 55.5891 12.5817C55.2783 12.6975 55.0262 12.9321 54.8882 13.2338L53.082 17.19L51.3707 13.2563C51.2331 12.961 50.9857 12.7311 50.6811 12.6155C50.3765 12.5 50.0389 12.5079 49.74 12.6376C49.4412 12.7673 49.2048 13.0085 49.0812 13.3099C48.9576 13.6113 48.9565 13.9491 49.0782 14.2513L51.9082 20.7563Z" fill="#0E5103"/>
<path d="M62.1404 39.4137V8.35C62.1397 7.46216 61.7869 6.61084 61.1593 5.98281C60.5317 5.35477 59.6807 5.00132 58.7929 5H13.6154C12.7275 5.00099 11.8763 5.35412 11.2485 5.98192C10.6207 6.60972 10.2676 7.46091 10.2666 8.34875V64.4325C10.2676 65.3203 10.6207 66.1715 11.2485 66.7993C11.8763 67.4271 12.7275 67.7803 13.6154 67.7812H34.5091C36.3763 70.0397 38.7192 71.8579 41.3706 73.1058C44.022 74.3536 46.9162 75.0005 49.8466 75C68.7528 74.9688 76.8816 50.8913 62.1404 39.4137ZM13.6154 65.2812C13.3901 65.2809 13.1743 65.1912 13.0151 65.0318C12.856 64.8725 12.7666 64.6565 12.7666 64.4312V8.35C12.7666 8.12478 12.856 7.90877 13.0151 7.7494C13.1743 7.59003 13.3901 7.50033 13.6154 7.5H58.7929C59.0176 7.50066 59.233 7.59033 59.3918 7.7494C59.5507 7.90846 59.64 8.12397 59.6404 8.34875V37.7313C46.7404 30.1375 29.7066 40.0312 29.9153 55.0687C29.917 58.6685 30.9011 62.1995 32.7616 65.2812H13.6154ZM49.8466 72.5C45.2253 72.495 40.7946 70.6571 37.5268 67.3895C34.2589 64.1218 32.4206 59.6913 32.4153 55.07C33.3741 31.945 66.3228 31.9525 67.2778 55.07C67.2726 59.6915 65.4341 64.1222 62.166 67.3899C58.8978 70.6576 54.4681 72.4954 49.8466 72.5Z" fill="#0E5103"/>
<path d="M63.4688 53.6L50.7313 40.85C50.4919 40.6243 50.1753 40.4985 49.8463 40.4985C49.5172 40.4985 49.2006 40.6243 48.9613 40.85L36.2238 53.6C36.1077 53.7162 36.0157 53.8542 35.953 54.0061C35.8903 54.1579 35.8582 54.3206 35.8584 54.4849C35.8586 54.6491 35.8912 54.8118 35.9544 54.9634C36.0175 55.1151 36.1099 55.2528 36.2263 55.3687L39.7638 58.8937C39.9981 59.1277 40.3157 59.2591 40.6469 59.2591C40.978 59.2591 41.2956 59.1277 41.53 58.8937L46.0963 54.3262V66.8337C46.0963 67.1653 46.228 67.4832 46.4624 67.7176C46.6968 67.952 47.0147 68.0837 47.3463 68.0837H52.3463C52.6778 68.0837 52.9957 67.952 53.2301 67.7176C53.4646 67.4832 53.5963 67.1653 53.5963 66.8337V54.3312L58.1488 58.8912C58.3824 59.1255 58.6994 59.2575 59.0302 59.2585C59.3611 59.2594 59.6788 59.1292 59.9138 58.8962L63.4638 55.3712C63.6978 55.1362 63.8296 54.8183 63.8305 54.4866C63.8315 54.155 63.7015 53.8363 63.4688 53.6ZM59.0375 56.2437L53.2313 50.4262C53.0566 50.2511 52.8339 50.1318 52.5913 50.0833C52.3488 50.0348 52.0973 50.0593 51.8688 50.1538C51.6402 50.2483 51.4448 50.4085 51.3073 50.614C51.1697 50.8196 51.0963 51.0614 51.0963 51.3087V65.5837H48.5963V51.3087C48.5962 51.0616 48.5229 50.8199 48.3855 50.6144C48.2482 50.4089 48.053 50.2487 47.8246 50.1541C47.5962 50.0596 47.3449 50.0348 47.1025 50.083C46.86 50.1312 46.6373 50.2502 46.4625 50.425L40.6438 56.2425L38.8775 54.4812L49.8463 43.5025L60.8138 54.48L59.0375 56.2437Z" fill="#0E5103"/>
</svg>
