<svg width="80" height="81" viewBox="0 0 80 81" fill="none" xmlns="http://www.w3.org/2000/svg">
<path d="M47.3288 11.07C47.4457 11.1045 47.5669 11.1221 47.6888 11.1225C47.9575 11.1223 48.2189 11.0354 48.4344 10.8749C48.6499 10.7143 48.8079 10.4886 48.885 10.2312L50.3375 5.395C50.3846 5.23774 50.4003 5.07274 50.3836 4.90943C50.367 4.74611 50.3183 4.58768 50.2404 4.44316C50.1626 4.29865 50.057 4.1709 49.9297 4.06719C49.8025 3.96349 49.656 3.88586 49.4988 3.83875C49.3415 3.79164 49.1765 3.77596 49.0132 3.79262C48.8499 3.80927 48.6914 3.85793 48.5469 3.93581C48.4024 4.0137 48.2747 4.11929 48.1709 4.24654C48.0672 4.3738 47.9896 4.52024 47.9425 4.6775L46.49 9.51375C46.4429 9.67101 46.4272 9.83601 46.4439 9.99933C46.4605 10.1626 46.5092 10.3211 46.587 10.4656C46.6649 10.6101 46.7705 10.7379 46.8978 10.8416C47.025 10.9453 47.1715 11.0229 47.3288 11.07ZM55.57 13.07C55.8611 13.2284 56.2032 13.2646 56.521 13.1709C56.8389 13.0771 57.1065 12.861 57.265 12.57L59.685 8.1125C59.7634 7.96821 59.8126 7.80989 59.8298 7.64659C59.847 7.48329 59.8318 7.3182 59.7852 7.16075C59.7386 7.00329 59.6615 6.85656 59.5582 6.72893C59.4549 6.60129 59.3274 6.49526 59.1831 6.41687C59.0388 6.33849 58.8805 6.2893 58.7172 6.2721C58.5539 6.2549 58.3888 6.27003 58.2314 6.31664C58.0739 6.36324 57.9272 6.4404 57.7996 6.54371C57.6719 6.64702 57.5659 6.77446 57.4875 6.91875L55.0675 11.375C54.9892 11.5193 54.9401 11.6776 54.9229 11.8409C54.9058 12.0041 54.921 12.1692 54.9677 12.3266C55.0143 12.484 55.0915 12.6306 55.1949 12.7582C55.2982 12.8858 55.4257 12.9917 55.57 13.07ZM64.9288 17.1463C65.1109 17.1464 65.2908 17.1068 65.456 17.0301C65.6211 16.9535 65.7676 16.8417 65.885 16.7025L69.1713 12.8C69.2795 12.6748 69.3618 12.5294 69.4134 12.3722C69.4651 12.215 69.4849 12.0491 69.4719 11.8841C69.4589 11.7191 69.4133 11.5584 69.3377 11.4112C69.2621 11.264 69.158 11.1333 69.0315 11.0266C68.905 10.9199 68.7585 10.8395 68.6007 10.7898C68.4428 10.7402 68.2767 10.7224 68.1119 10.7375C67.9471 10.7526 67.7869 10.8002 67.6407 10.8777C67.4945 10.9552 67.3651 11.0609 67.26 11.1887L63.9738 15.0913C63.8205 15.2733 63.7224 15.4954 63.691 15.7313C63.6596 15.9672 63.6962 16.2072 63.7965 16.423C63.8968 16.6389 64.0566 16.8216 64.2572 16.9497C64.4578 17.0778 64.6908 17.146 64.9288 17.1463ZM72.5525 23.3563C72.8465 23.3563 73.1311 23.2527 73.3563 23.0638L77.2313 19.8138C77.4773 19.5984 77.6292 19.2952 77.6544 18.9692C77.6796 18.6432 77.5759 18.3203 77.3658 18.0698C77.1557 17.8192 76.8557 17.661 76.5303 17.629C76.2049 17.5971 75.8799 17.6939 75.625 17.8987L71.75 21.1487C71.554 21.3138 71.4134 21.5351 71.3473 21.7826C71.2812 22.0302 71.2928 22.2921 71.3806 22.5329C71.4683 22.7736 71.6279 22.9816 71.8377 23.1287C72.0475 23.2757 72.2975 23.3547 72.5538 23.355L72.5525 23.3563ZM14.115 16.7025C14.2201 16.8304 14.3495 16.9361 14.4957 17.0135C14.6419 17.091 14.8021 17.1387 14.9669 17.1537C15.1317 17.1688 15.2978 17.151 15.4557 17.1014C15.6135 17.0518 15.76 16.9713 15.8865 16.8646C16.013 16.758 16.1171 16.6273 16.1927 16.4801C16.2683 16.3329 16.3139 16.1721 16.3269 16.0072C16.3399 15.8422 16.3201 15.6763 16.2684 15.519C16.2168 15.3618 16.1345 15.2164 16.0263 15.0913L12.74 11.1887C12.5249 10.9401 12.2205 10.7861 11.8928 10.7603C11.565 10.7345 11.2402 10.8388 10.9889 11.0507C10.7375 11.2627 10.5797 11.5651 10.5498 11.8925C10.5198 12.2199 10.62 12.546 10.8288 12.8L14.115 16.7025ZM22.735 12.5675C22.8133 12.7118 22.9193 12.8392 23.0468 12.9426C23.1744 13.0459 23.321 13.1231 23.4784 13.1698C23.6358 13.2165 23.8009 13.2317 23.9641 13.2145C24.1274 13.1974 24.2857 13.1483 24.43 13.07C24.5743 12.9917 24.7017 12.8857 24.8051 12.7582C24.9084 12.6306 24.9856 12.484 25.0323 12.3266C25.079 12.1692 25.0942 12.0041 25.077 11.8409C25.0599 11.6776 25.0108 11.5193 24.9325 11.375L22.5125 6.91625C22.3542 6.62484 22.0866 6.40826 21.7686 6.31414C21.4506 6.22002 21.1083 6.25607 20.8169 6.41438C20.5255 6.57268 20.3089 6.84025 20.2148 7.15825C20.1206 7.47624 20.1567 7.81859 20.315 8.11L22.735 12.5675ZM6.68375 23.095C6.81299 23.2015 6.96232 23.281 7.12286 23.3287C7.28341 23.3763 7.4519 23.3913 7.61833 23.3726C7.78475 23.3539 7.94573 23.3019 8.09169 23.2198C8.23765 23.1377 8.36562 23.0271 8.468 22.8945C8.57038 22.762 8.64508 22.6102 8.68766 22.4482C8.73025 22.2863 8.73986 22.1174 8.71591 21.9516C8.69196 21.7859 8.63495 21.6266 8.54825 21.4833C8.46156 21.3401 8.34696 21.2156 8.21125 21.1175L4.51375 18.2612C4.38451 18.1547 4.23519 18.0753 4.07464 18.0276C3.9141 17.9799 3.74561 17.965 3.57918 17.9837C3.41275 18.0024 3.25177 18.0543 3.10581 18.1365C2.95985 18.2186 2.83189 18.3292 2.72951 18.4617C2.62713 18.5943 2.55243 18.746 2.50984 18.908C2.46725 19.07 2.45765 19.2388 2.4816 19.4046C2.50554 19.5704 2.56256 19.7296 2.64925 19.8729C2.73594 20.0162 2.85054 20.1406 2.98625 20.2388L6.68375 23.095ZM31.115 10.2312C31.1921 10.4886 31.3501 10.7143 31.5656 10.8749C31.7811 11.0354 32.0426 11.1223 32.3113 11.1225C32.4331 11.1221 32.5543 11.1045 32.6713 11.07C32.8285 11.0229 32.975 10.9453 33.1022 10.8416C33.2295 10.7379 33.3351 10.6101 33.413 10.4656C33.4909 10.3211 33.5395 10.1626 33.5562 9.99933C33.5728 9.83601 33.5571 9.67101 33.51 9.51375L32.0575 4.6775C32.0104 4.52024 31.9328 4.3738 31.8291 4.24654C31.7254 4.11929 31.5976 4.0137 31.4531 3.93581C31.3086 3.85793 31.1501 3.80927 30.9868 3.79262C30.8235 3.77596 30.6585 3.79164 30.5013 3.83875C30.344 3.88586 30.1976 3.96349 30.0703 4.06719C29.943 4.1709 29.8375 4.29865 29.7596 4.44316C29.6817 4.58768 29.633 4.74611 29.6164 4.90943C29.5997 5.07274 29.6154 5.23774 29.6625 5.395L31.115 10.2312ZM40 10.5C40.3315 10.5 40.6495 10.3683 40.8839 10.1339C41.1183 9.89946 41.25 9.58152 41.25 9.25V4.25C41.25 3.91848 41.1183 3.60054 40.8839 3.36612C40.6495 3.1317 40.3315 3 40 3C39.6685 3 39.3505 3.1317 39.1161 3.36612C38.8817 3.60054 38.75 3.91848 38.75 4.25V9.25C38.75 9.58152 38.8817 9.89946 39.1161 10.1339C39.3505 10.3683 39.6685 10.5 40 10.5ZM23.0088 49.3288C16.1097 46.1804 10.0554 41.4412 5.3425 35.5C7.74437 32.5001 10.4813 29.7845 13.5 27.4062C13.7609 27.2015 13.9298 26.9016 13.9695 26.5723C14.0093 26.2431 13.9166 25.9115 13.7119 25.6506C13.5072 25.3897 13.2072 25.2208 12.8779 25.1811C12.5487 25.1414 12.2172 25.234 11.9563 25.4388C8.52144 28.1481 5.43358 31.2704 2.7625 34.735C2.59303 34.954 2.50107 35.2231 2.50107 35.5C2.50107 35.7769 2.59303 36.046 2.7625 36.265C7.81405 42.8827 14.4183 48.1539 21.9913 51.6125C22.2941 51.7474 22.6381 51.7565 22.9477 51.6378C23.2572 51.5191 23.507 51.2822 23.6419 50.9794C23.7768 50.6765 23.7859 50.3325 23.6672 50.0229C23.5484 49.7134 23.3116 49.4637 23.0088 49.3288Z" fill="#E0FBDC"/>
<path d="M77.2387 36.265C77.4082 36.046 77.5002 35.7769 77.5002 35.5C77.5002 35.2231 77.4082 34.954 77.2387 34.735C67.7737 22.51 54.2 15.5 40 15.5C31.4303 15.5346 23.05 18.0241 15.8512 22.6738C15.5718 22.8521 15.3746 23.1342 15.3031 23.4579C15.2316 23.7817 15.2916 24.1205 15.47 24.4C15.6484 24.6795 15.9304 24.8766 16.2542 24.9481C16.5779 25.0196 16.9168 24.9596 17.1962 24.7812C20.3686 22.7578 23.7901 21.1544 27.375 20.0113C25.0615 21.8907 23.1985 24.2646 21.9228 26.9585C20.6471 29.6525 19.9912 32.598 20.0032 35.5787C20.0152 38.5593 20.6948 41.4995 21.9921 44.183C23.2894 46.8666 25.1715 49.2255 27.5 51.0863V53C26.5054 53 25.5516 53.3951 24.8483 54.0984C24.1451 54.8016 23.75 55.7554 23.75 56.75C23.75 57.7446 24.1451 58.6984 24.8483 59.4016C25.5516 60.1049 26.5054 60.5 27.5 60.5H52.5C52.8315 60.5 53.1495 60.6317 53.3839 60.8661C53.6183 61.1005 53.75 61.4185 53.75 61.75C53.75 62.0815 53.6183 62.3995 53.3839 62.6339C53.1495 62.8683 52.8315 63 52.5 63H27.5C27.1685 63 26.8505 63.1317 26.6161 63.3661C26.3817 63.6005 26.25 63.9185 26.25 64.25C26.25 64.5815 26.3817 64.8995 26.6161 65.1339C26.8505 65.3683 27.1685 65.5 27.5 65.5C27.5 68.8152 28.817 71.9946 31.1612 74.3388C33.5054 76.683 36.6848 78 40 78C43.3152 78 46.4946 76.683 48.8388 74.3388C51.183 71.9946 52.5 68.8152 52.5 65.5C53.2253 65.5032 53.9358 65.2951 54.5447 64.9011C55.1537 64.5071 55.6347 63.9443 55.929 63.2814C56.2233 62.6186 56.3182 61.8843 56.2021 61.1684C56.0859 60.4524 55.7638 59.7858 55.275 59.25C55.7638 58.7142 56.0859 58.0476 56.2021 57.3316C56.3182 56.6157 56.2233 55.8814 55.929 55.2186C55.6347 54.5557 55.1537 53.9929 54.5447 53.5989C53.9358 53.2049 53.2253 52.9968 52.5 53V51.0863C54.8467 49.2239 56.7407 46.8539 58.0397 44.1543C59.3387 41.4547 60.0089 38.4958 60 35.5C59.997 34.0641 59.8403 32.6326 59.5325 31.23C59.4989 31.0682 59.4336 30.9147 59.3404 30.7783C59.2471 30.642 59.1278 30.5254 58.9892 30.4355C58.8506 30.3455 58.6956 30.2839 58.533 30.2542C58.3705 30.2246 58.2037 30.2274 58.0423 30.2626C57.8809 30.2978 57.728 30.3646 57.5926 30.4593C57.4572 30.5539 57.3418 30.6744 57.2533 30.8139C57.1647 30.9534 57.1047 31.109 57.0767 31.2719C57.0486 31.4347 57.0532 31.6014 57.09 31.7625C57.3599 32.9901 57.4973 34.2431 57.5 35.5C57.5071 38.2147 56.8776 40.8932 55.6619 43.3205C54.4462 45.7478 52.6782 47.8561 50.5 49.4762C50.3447 49.5927 50.2187 49.7437 50.132 49.9172C50.0452 50.0908 50 50.2822 50 50.4762V53H45V44.15C47.0498 42.9733 48.6142 41.1058 49.4134 38.8814C50.2126 36.6571 50.1946 34.221 49.3625 32.0088C49.2803 31.7892 49.1381 31.5972 48.9519 31.4546C48.7658 31.312 48.5434 31.2247 48.31 31.2025C48.0765 31.1784 47.8411 31.2212 47.631 31.3259C47.421 31.4306 47.2451 31.5929 47.1237 31.7938C46.9042 32.1612 46.5931 32.4655 46.2209 32.6769C45.8487 32.8883 45.4281 32.9997 45 33C44.337 33 43.7011 32.7366 43.2322 32.2678C42.7634 31.7989 42.5 31.163 42.5 30.5C42.5 30.0718 42.611 29.651 42.8222 29.2786C43.0334 28.9061 43.3376 28.5948 43.705 28.375C43.905 28.2527 44.0665 28.0767 44.1712 27.867C44.2759 27.6573 44.3196 27.4223 44.2971 27.189C44.2747 26.9557 44.1872 26.7334 44.0444 26.5475C43.9017 26.3615 43.7096 26.2195 43.49 26.1375C41.9784 25.5689 40.3513 25.3758 38.7486 25.5747C37.1459 25.7736 35.6154 26.3586 34.2886 27.2795C32.9618 28.2003 31.8784 29.4294 31.1314 30.8613C30.3844 32.2932 29.9962 33.885 30 35.5C30.0069 37.2526 30.472 38.9729 31.3491 40.4903C32.2262 42.0076 33.4848 43.2692 35 44.15V53H30V50.4738C30 50.2797 29.9548 50.0883 29.868 49.9147C29.7812 49.7412 29.6552 49.5902 29.5 49.4738C27.4035 47.8972 25.6885 45.8692 24.4821 43.54C23.2756 41.2108 22.6085 38.64 22.5303 36.018C22.452 33.3961 22.9646 30.7901 24.03 28.3931C25.0954 25.9961 26.6863 23.8694 28.6851 22.1706C30.6838 20.4718 33.039 19.2443 35.5764 18.5792C38.1138 17.914 40.7683 17.8281 43.3434 18.3279C45.9185 18.8277 48.3481 19.9003 50.4525 21.4664C52.5568 23.0325 54.2819 25.0519 55.5 27.375C55.5763 27.5204 55.6805 27.6493 55.8067 27.7543C55.9328 27.8594 56.0784 27.9386 56.2352 27.9874C56.392 28.0362 56.5568 28.0537 56.7203 28.0388C56.8838 28.0239 57.0428 27.977 57.1881 27.9006C57.3335 27.8243 57.4624 27.7201 57.5675 27.5939C57.6725 27.4678 57.7517 27.3222 57.8006 27.1654C57.8494 27.0087 57.8668 26.8438 57.8519 26.6803C57.837 26.5168 57.7901 26.3579 57.7137 26.2125C56.4632 23.8306 54.7467 21.7243 52.6662 20.0187C61.3509 22.9214 68.9958 28.3032 74.6575 35.5C69.9446 41.4412 63.8903 46.1804 56.9912 49.3288C56.8413 49.3956 56.706 49.4913 56.593 49.6104C56.48 49.7295 56.3916 49.8697 56.3328 50.0229C56.274 50.1762 56.246 50.3396 56.2503 50.5037C56.2547 50.6678 56.2913 50.8294 56.3581 50.9794C56.4249 51.1293 56.5206 51.2647 56.6397 51.3776C56.7588 51.4906 56.899 51.579 57.0523 51.6378C57.2056 51.6966 57.3689 51.7246 57.533 51.7203C57.6971 51.7159 57.8588 51.6793 58.0087 51.6125C65.5822 48.1541 72.1868 42.8829 77.2387 36.265ZM40 75.5C37.3487 75.497 34.8069 74.4425 32.9322 72.5678C31.0575 70.6931 30.003 68.1513 30 65.5H50C49.997 68.1513 48.9425 70.6931 47.0678 72.5678C45.1931 74.4425 42.6512 75.497 40 75.5ZM53.75 56.75C53.75 57.0815 53.6183 57.3995 53.3839 57.6339C53.1495 57.8683 52.8315 58 52.5 58H27.5C27.1685 58 26.8505 57.8683 26.6161 57.6339C26.3817 57.3995 26.25 57.0815 26.25 56.75C26.25 56.4185 26.3817 56.1005 26.6161 55.8661C26.8505 55.6317 27.1685 55.5 27.5 55.5H52.5C52.8315 55.5 53.1495 55.6317 53.3839 55.8661C53.6183 56.1005 53.75 56.4185 53.75 56.75ZM36.7875 42.2675C35.2541 41.535 34.0149 40.3035 33.2729 38.7747C32.5309 37.2459 32.3301 35.5104 32.7034 33.8525C33.0767 32.1946 34.0019 30.7127 35.3276 29.6494C36.6532 28.5861 38.3006 28.0046 40 28C40.2187 28 40.4375 28.01 40.6537 28.0288C40.1132 28.9805 39.8998 30.0833 40.0465 31.168C40.1931 32.2527 40.6916 33.2593 41.4655 34.0334C42.2394 34.8074 43.2459 35.3061 44.3306 35.4529C45.4153 35.5998 46.5181 35.3867 47.47 34.8462C47.49 35.0625 47.5 35.2812 47.5 35.5C47.4942 36.9171 47.0888 38.3038 46.3304 39.5009C45.572 40.698 44.4913 41.6569 43.2125 42.2675C42.9998 42.3688 42.82 42.5282 42.694 42.7272C42.5679 42.9263 42.5007 43.1569 42.5 43.3925V53H37.5V43.3963C37.5 43.16 37.4331 42.9286 37.307 42.7288C37.1809 42.529 37.0008 42.3691 36.7875 42.2675Z" fill="#E0FBDC"/>
<path d="M65.885 52.5087C65.7789 52.3832 65.6491 52.2799 65.503 52.2045C65.3569 52.1292 65.1975 52.0834 65.0337 52.0697C64.8699 52.056 64.705 52.0747 64.5485 52.1247C64.3919 52.1747 64.2467 52.2551 64.1213 52.3612C63.9958 52.4674 63.8924 52.5972 63.8171 52.7432C63.7417 52.8893 63.6959 53.0488 63.6822 53.2126C63.6685 53.3763 63.6872 53.5412 63.7372 53.6978C63.7873 53.8543 63.8676 53.9995 63.9738 54.125L67.26 58.0287C67.3659 58.1542 67.4954 58.2576 67.6413 58.3331C67.7871 58.4085 67.9464 58.4544 68.11 58.4683C68.2736 58.4822 68.4383 58.4637 68.5948 58.4139C68.7513 58.3641 68.8964 58.284 69.0219 58.1781C69.1474 58.0722 69.2508 57.9427 69.3262 57.7968C69.4016 57.651 69.4476 57.4917 69.4615 57.3281C69.4753 57.1645 69.4568 56.9998 69.4071 56.8433C69.3573 56.6868 69.2771 56.5417 69.1713 56.4162L65.885 52.5087ZM73.3563 46.15C73.2315 46.0377 73.0855 45.9517 72.9268 45.8971C72.7682 45.8424 72.6001 45.8203 72.4327 45.832C72.2654 45.8437 72.102 45.889 71.9525 45.9652C71.803 46.0413 71.6703 46.1468 71.5625 46.2754C71.4546 46.4039 71.3737 46.5528 71.3246 46.7133C71.2755 46.8738 71.2592 47.0425 71.2767 47.2093C71.2942 47.3762 71.3452 47.5379 71.4265 47.6847C71.5078 47.8315 71.6178 47.9604 71.75 48.0637L75.625 51.3137C75.8798 51.5177 76.2043 51.6139 76.5291 51.5817C76.8539 51.5496 77.1533 51.3917 77.3632 51.1418C77.5732 50.8919 77.677 50.5697 77.6526 50.2443C77.6282 49.9188 77.4774 49.6158 77.2325 49.4L73.3563 46.15ZM14.115 52.5087L10.8288 56.4112C10.6149 56.6647 10.5105 56.9927 10.5385 57.3231C10.5666 57.6535 10.7247 57.9593 10.9781 58.1731C11.2316 58.3869 11.5596 58.4913 11.89 58.4633C12.2204 58.4353 12.5262 58.2772 12.74 58.0237L16.0263 54.125C16.1345 53.9998 16.2168 53.8544 16.2684 53.6972C16.3201 53.54 16.3399 53.374 16.3269 53.2091C16.3139 53.0441 16.2683 52.8834 16.1927 52.7362C16.1171 52.589 16.013 52.4582 15.8865 52.3516C15.76 52.2449 15.6135 52.1644 15.4557 52.1148C15.2978 52.0652 15.1317 52.0474 14.9669 52.0625C14.8021 52.0776 14.6419 52.1252 14.4957 52.2027C14.3495 52.2802 14.2201 52.3859 14.115 52.5137V52.5087ZM6.68375 46.1175L2.98625 48.9725C2.85054 49.0706 2.73594 49.195 2.64925 49.3383C2.56256 49.4816 2.50554 49.6409 2.4816 49.8066C2.45765 49.9724 2.46725 50.1413 2.50984 50.3032C2.55243 50.4652 2.62713 50.617 2.72951 50.7495C2.83189 50.882 2.95985 50.9927 3.10581 51.0748C3.25177 51.1569 3.41275 51.2089 3.57918 51.2276C3.74561 51.2463 3.9141 51.2313 4.07464 51.1836C4.23519 51.136 4.38451 51.0565 4.51375 50.95L8.21125 48.095C8.34696 47.9968 8.46156 47.8724 8.54825 47.7291C8.63495 47.5858 8.69196 47.4266 8.71591 47.2608C8.73986 47.0951 8.73025 46.9262 8.68766 46.7642C8.64508 46.6023 8.57038 46.4505 8.468 46.318C8.36562 46.1854 8.23765 46.0748 8.09169 45.9927C7.94573 45.9106 7.78475 45.8586 7.61832 45.8399C7.4519 45.8212 7.28341 45.8361 7.12286 45.8838C6.96232 45.9315 6.81299 46.011 6.68375 46.1175Z" fill="#E0FBDC"/>
</svg>
